<?xml version="1.0" encoding="utf-8"?>
<!-- Generator: Adobe Illustrator 16.0.0, SVG Export Plug-In . SVG Version: 6.00 Build 0)  -->
<!DOCTYPE svg PUBLIC "-//W3C//DTD SVG 1.1//EN" "http://www.w3.org/Graphics/SVG/1.1/DTD/svg11.dtd">
<svg version="1.1" id="Capa_1" xmlns="http://www.w3.org/2000/svg" xmlns:xlink="http://www.w3.org/1999/xlink" x="0px" y="0px"
	 width="255.4px" height="123.672px" viewBox="0 0 255.4 123.672" enable-background="new 0 0 255.4 123.672" xml:space="preserve">
<g>
	<path fill="#FFFFFF" d="M245.115,25.275h-1.193h-0.641h-0.644h-5.043h-3.026c-0.915-1.173-2.342-1.927-3.943-1.927h-1.926
		c-1.604,0-3.029,0.754-3.944,1.927h-6.233h-0.535c-0.757-0.215-1.474-0.375-2.126-0.521c-0.355-0.08-0.732-0.122-1.099-0.122
		h-2.568h-0.641c-0.214,0-0.428,0.014-0.64,0.041c-0.211-0.027-0.427-0.041-0.645-0.041h-3.119c-0.544,0-1.067,0.087-1.559,0.248
		c-0.49-0.161-1.015-0.248-1.559-0.248c-0.759,0-1.534,0-2.363,0.227c-0.481-0.15-0.983-0.227-1.488-0.227h-0.643h-0.642h-1.7
		c-0.915-0.825-2.105-1.284-3.346-1.284h-0.642h-0.55c-0.216,0-0.429,0.014-0.641,0.041c-0.21-0.027-0.425-0.041-0.644-0.041h-1.926
		c-0.925,0-1.789,0.25-2.531,0.687c-0.223-0.03-0.448-0.045-0.68-0.045c-0.838,0-1.563,0.092-2.188,0.253
		c-0.82-0.57-1.812-0.895-2.854-0.895h-0.642h-1.283h-0.643c-0.892,0-1.729,0.233-2.452,0.642h-0.665
		c-2.152,0-3.986,1.36-4.691,3.268c-0.27,0.251-0.51,0.53-0.716,0.831c-1.999,0.654-3.443,2.535-3.443,4.753
		c0,3.632,1.726,5.147,3.328,5.77c0.35,0.558,0.818,1.035,1.363,1.42c-0.859,0.855-1.419,2.014-1.478,3.307
		c-0.034,0.038-0.058,0.083-0.09,0.123c-0.406-0.479-0.896-0.885-1.455-1.184c-0.569-2.134-2.518-3.707-4.831-3.707h-0.038
		c-0.109-0.048-0.226-0.096-0.34-0.142l-0.061-0.024c-0.666-0.313-1.393-0.476-2.13-0.476h-1.284c-1.064,0-2.096,0.34-2.945,0.96
		c-0.359,0.134-0.704,0.311-1.026,0.526c-0.536,0.359-1.006,0.768-1.42,1.239c-0.073,0.064-0.146,0.13-0.215,0.197
		c-0.101,0.04-0.197,0.083-0.295,0.128c-0.253-0.935-0.786-1.771-1.519-2.42c0.082-0.192,0.159-0.387,0.217-0.589
		c0.142-0.496,0.274-0.965,0.427-1.314c0.497-1.156,0.534-2.441,0.136-3.604c0.461-1.244,0.579-2.304,0.305-4.087
		c-0.271-1.764-1.463-3.25-3.126-3.897c-0.588-0.229-1.204-0.342-1.814-0.342c-1.118,0-2.224,0.375-3.123,1.095
		c-0.327,0.262-0.707,0.565-1.112,0.925c-0.386,0.194-0.854,0.454-1.333,0.814c-0.189,0.142-0.368,0.297-0.535,0.464l-1.656,1.657
		c-0.275,0.215-0.498,0.417-0.675,0.586c-0.162,0.134-0.306,0.266-0.433,0.389c-0.93,0.36-1.739,0.993-2.313,1.828
		c-0.22,0.151-0.428,0.32-0.623,0.507L136.556,33c-0.203,0.176-0.568,0.492-0.95,0.956c-0.248,0.259-0.564,0.617-0.89,1.094
		c-0.009,0.005-0.017,0.011-0.025,0.017c-0.419,0.139-0.818,0.334-1.19,0.581c-0.198,0.131-0.387,0.27-0.566,0.415
		c-1.288,0.198-2.414,0.887-3.181,1.87c-1.741,0.065-3.33,1.034-4.183,2.564c-0.37,0.666-0.673,1.292-0.966,1.898
		c-0.013,0.027-0.025,0.054-0.039,0.082c-0.05,0.053-0.102,0.108-0.152,0.166c0.004-0.018,0.008-0.036,0.012-0.053
		c0.519-1.02,0.566-1.985,0.559-2.399c-0.012-0.592-0.111-1.118-0.274-1.583c0.034-0.235,0.052-0.476,0.052-0.721
		c0-0.046,0-0.091,0-0.137c1.444-1.302,2.035-3.371,1.395-5.294c-0.046-0.154-0.113-0.636-0.158-0.955
		c-0.032-0.228-0.08-0.454-0.145-0.675c-0.069-0.245-0.145-0.475-0.218-0.691c0.811-1.043,1.179-2.369,1.014-3.688
		c-0.102-0.806-0.223-1.586-0.341-2.341c-0.096-0.612-0.187-1.195-0.263-1.762v-3.531c0-2.761-2.238-5-5-5h-0.026
		c-0.191-0.108-0.392-0.204-0.599-0.286c-0.082-0.033-0.172-0.069-0.265-0.106c-0.936-0.923-2.196-1.441-3.513-1.441h-0.114
		c-0.725-0.409-1.563-0.643-2.453-0.643c-3.43,0-4.971,1.538-5.655,3.06c-0.758,0.898-1.179,2.04-1.179,3.224v0.665
		c-0.166,0.282-0.313,0.551-0.449,0.82c-0.031,0.035-0.061,0.067-0.084,0.097l-0.014,0.015c-0.596,0.625-1.02,1.395-1.229,2.233
		c-0.028,0.113-0.056,0.225-0.082,0.336c-1.211,0.912-1.994,2.362-1.994,3.996v2.567c0,0.434,0.058,0.865,0.168,1.284
		c-0.109,0.417-0.168,0.848-0.168,1.284v0.642c0,1.029,0.317,2.024,0.897,2.857c0.24,0.728,0.648,1.398,1.199,1.952l0.651,0.652
		c0.147,0.147,0.303,0.284,0.465,0.41c0.002,0.061,0.006,0.122,0.01,0.182c-0.26,0.099-0.506,0.223-0.742,0.361
		c-0.74-0.435-1.603-0.686-2.523-0.686h-0.367c-0.396-0.136-0.772-0.249-1.129-0.352c-0.482-0.346-1.023-0.602-1.596-0.757
		c-0.756-0.46-1.645-0.725-2.594-0.725c-1.383,0-2.145,0-3.059,0.261c-0.445,0.127-0.898,0.319-1.331,0.58
		c-0.656-0.209-1.279-0.268-1.886-0.284c-1.24-1.796-2.396-2.502-4.781-3.013c-0.351-0.075-0.702-0.112-1.05-0.112
		c-0.231,0-0.462,0.017-0.688,0.048c-0.017-0.883-0.102-1.802-0.604-2.807c-0.546-1.093-1.926-2.926-5.034-2.926h-0.551h-0.113
		c-0.28-0.166-0.55-0.313-0.818-0.449c-0.038-0.033-0.072-0.063-0.104-0.089l-0.016-0.014c-0.929-0.88-2.16-1.373-3.442-1.373
		h-2.476c-0.882,0-1.706,0.237-2.426,0.638c0.093-0.462,0.188-0.925,0.308-1.398c0.099-0.396,0.148-0.802,0.148-1.209v-0.643v-0.115
		c0.1-0.177,0.188-0.359,0.266-0.547c1.487-0.776,2.163-2.064,2.381-2.573c0.472-1.103,0.472-2.069,0.472-3.091
		c0-1.56-0.714-2.953-1.834-3.87v-0.531c0-0.908-0.247-1.798-0.715-2.577c-0.048-0.08-0.134-0.266-0.21-0.43
		c-0.085-0.183-0.166-0.356-0.247-0.518c-0.848-1.691-2.577-2.759-4.47-2.759H64.74c-1.574,0-3.058,0.742-4.001,2.001
		c-0.024,0.033-0.05,0.065-0.072,0.098c-0.515-0.175-1.059-0.267-1.611-0.267h-0.643c-0.329,0-0.658,0.033-0.981,0.097
		c-0.679,0.136-1.272,0.297-1.798,0.44c-0.296,0.08-0.584,0.161-0.874,0.225c-1.754,0.391-3.12,1.675-3.661,3.31
		c-0.274,0.396-0.491,0.829-0.642,1.284c-0.314,0.451-0.554,0.953-0.704,1.486c-0.047,0.165-0.132,0.403-0.224,0.655
		c-0.132,0.371-0.28,0.79-0.417,1.264c-0.128,0.447-0.192,0.91-0.192,1.375v0.55v0.247c-0.762-0.47-1.65-0.754-2.611-0.754h-0.642
		c-0.607,0-1.203,0.11-1.761,0.32c-0.122-0.955-0.479-1.71-0.932-2.309c-0.573-2.129-2.518-3.696-4.828-3.696
		c-0.693,0-1.403,0-2.155,0.174c-0.904-0.901-2.151-1.458-3.529-1.458h-0.643c-0.011,0-0.021,0-0.031,0
		c-0.874-1.57-2.539-2.567-4.369-2.567h-0.643c-1.273,0-2.499,0.487-3.425,1.357c-0.729,0.126-1.403,0.41-1.987,0.815
		c-0.49-0.161-1.014-0.247-1.558-0.247c-1.053,0-2.143,0-3.357,0.607c-0.731,0.365-1.795,1.104-2.417,2.486
		c-0.662,0.797-1.081,1.804-1.144,2.906c-0.243,0.236-0.422,0.443-0.538,0.577l-0.014,0.016c-0.56,0.585-0.967,1.298-1.189,2.077
		c-0.059,0.205-0.133,0.408-0.206,0.612c-0.373,0.418-0.674,0.896-0.889,1.416l-0.06,0.117c-0.218,0.423-0.581,1.13-0.774,2.101
		c-0.019,0.092-0.034,0.185-0.048,0.277c-0.097,0.165-0.186,0.335-0.262,0.51c-0.079,0.042-0.153,0.083-0.225,0.118
		c-1.699,0.845-2.772,2.579-2.772,4.477v0.642c0,1.298,0.505,2.544,1.404,3.476c-0.079,0.473-0.122,0.995-0.122,1.569
		c0,1.876,1.033,3.511,2.563,4.366c0.353,0.636,0.759,1.069,1.002,1.314c0.059,0.073,0.119,0.145,0.181,0.214
		c0.005,0.014,0.011,0.027,0.016,0.041v0.175c-0.013,0.023-0.022,0.045-0.034,0.067c-0.607,1.216-0.607,2.305-0.607,3.358
		c0,1.326,0.517,2.53,1.357,3.425c0.272,1.583,1.291,2.91,2.68,3.61c0.316,1.131,1.024,2.115,1.989,2.776
		c0.242,0.739,0.655,1.418,1.216,1.978c0.219,0.219,0.552,0.551,1.029,0.911c-0.021,0-0.041,0-0.063,0H17.88
		c-0.981,0-1.941,0.289-2.76,0.831c-0.763,0.504-1.253,1.073-1.489,1.346l-0.013,0.015c-1.199,1.259-1.659,3.052-1.212,4.734
		c-0.075,0.283-0.127,0.573-0.15,0.868c-0.032,0.093-0.063,0.183-0.092,0.272c-0.344,0.397-0.621,0.849-0.824,1.334
		c-0.025,0.049-0.053,0.097-0.079,0.145c-0.004,0.006-0.008,0.014-0.011,0.02c-0.236,0.246-0.5,0.556-0.748,0.931
		c-0.109,0.166-0.209,0.337-0.298,0.515l-0.072,0.139c-0.261,0.498-0.698,1.33-0.913,2.404c-0.048,0.235-0.078,0.475-0.091,0.715
		c-0.041,0.076-0.082,0.154-0.121,0.234c-0.471,0.941-0.627,1.995-0.468,3.014C8.5,74.04,8.479,74.299,8.479,74.565v0.938
		c-0.097,0.727-0.184,1.543-0.184,2.363c0,1.491,0.665,2.895,1.795,3.838c0.23,0.529,0.555,1.02,0.96,1.443
		c0.108,0.546,0.307,1.066,0.581,1.539c0.055,0.676,0.198,1.379,0.574,2.131c0.014,0.027,0.027,0.057,0.043,0.085
		c-0.047,0.747,0.071,1.509,0.371,2.229c0.673,1.623,2.138,2.756,3.837,3.025c0.584,0.772,1.387,1.37,2.314,1.7
		c0.897,1.335,2.423,2.214,4.152,2.214h1.926h0.088c0.121,0.028,0.24,0.055,0.358,0.083c0.27,0.662,0.559,1.235,0.952,1.892
		c0.058,0.097,0.118,0.19,0.183,0.283c0.076,0.229,0.169,0.455,0.279,0.674l0.083,0.174c0.158,0.334,0.377,0.802,0.705,1.311
		c0.131,1.061,0.599,2.057,1.342,2.836l0.013,0.016c0.146,0.166,0.385,0.445,0.726,0.752c0.138,0.17,0.319,0.386,0.55,0.615
		l0.398,0.397l0.233,0.233l0.065,0.064c0.021,0.039,0.042,0.076,0.062,0.109c0.026,0.048,0.053,0.095,0.078,0.143
		c0.706,1.689,2.279,2.859,4.104,3.047c0.172,0.016,0.343,0.025,0.512,0.025c1.474,0,2.872-0.65,3.819-1.775
		c0.128-0.111,0.247-0.223,0.356-0.332c0.938-0.938,1.464-2.209,1.464-3.535v-1.283v-0.641v-1.053
		c0.636-0.258,1.205-0.641,1.678-1.121c0.353-0.09,0.713-0.22,1.087-0.406c1.092-0.545,2.921-1.927,2.921-5.033v-0.641
		c0-0.011,0-0.021,0-0.033c0.217-0.121,0.422-0.256,0.616-0.406c0.024-0.006,0.048-0.012,0.072-0.016
		c0.514-0.115,0.998-0.224,1.462-0.301c0.922-0.154,1.78-0.563,2.479-1.177c0.425-0.063,0.841-0.181,1.237-0.351
		c0.135-0.059,0.285-0.113,0.45-0.168c0.239,0.162,0.496,0.315,0.779,0.471c0.432,0.516,0.911,0.877,1.335,1.131v0.208
		c0,1.026,0.315,2.022,0.896,2.854c0.072,0.221,0.161,0.436,0.266,0.646c0.272,0.552,0.612,1.009,0.971,1.411
		c0.103,0.281,0.229,0.554,0.38,0.813c0.131,1.11,0.631,2.15,1.43,2.949c0.125,0.125,0.287,0.287,0.492,0.471
		c0.069,0.092,0.135,0.176,0.194,0.252c0.048,0.063,0.098,0.123,0.144,0.188c0.918,1.498,2.543,2.389,4.264,2.389
		c0.282,0,0.568-0.023,0.854-0.072c2.035-0.354,3.646-1.922,4.05-3.947c0.059-0.287,0.077-0.336,0.109-0.416
		c0.146-0.369,0.248-0.754,0.304-1.145c0.146-0.246,0.253-0.511,0.354-0.777c0.045,0.434,0.088,0.877,0.134,1.302
		c0.115,1.057,0.224,2.055,0.312,3.056c0.161,1.855,1.34,3.465,3.055,4.18c0.05,0.026,0.098,0.055,0.146,0.082
		c0.273,0.15,0.688,0.379,1.208,0.588c0.603,0.242,1.231,0.357,1.855,0.357c1.302,0,2.581-0.508,3.537-1.464
		c0.107-0.108,0.219-0.229,0.332-0.356c0.193-0.164,0.37-0.347,0.535-0.537c0.531,0.607,1.199,1.092,1.967,1.388v0.375v0.642
		c0,1.157,0.4,2.273,1.128,3.162c0.056,0.206,0.108,0.406,0.156,0.598v0.643c0,2.761,2.238,5,5,5h1.925h0.643
		c1.326,0,2.599-0.527,3.536-1.465c0.095-0.094,0.192-0.199,0.288-0.307c0.867-0.752,1.454-1.785,1.652-2.922
		c0.842-0.895,1.356-2.1,1.356-3.426v-0.641c0-0.403-0.048-0.795-0.138-1.17c0.494-0.775,0.779-1.695,0.779-2.683
		c0-2.062-0.557-3.44-1.329-4.362c0.029-0.222,0.046-0.449,0.046-0.681c0-1.041,0-2.116-0.585-3.313
		c0.077-0.158,0.154-0.334,0.229-0.523c0.206-0.518,0.323-1.064,0.351-1.619c0.813-0.9,1.288-2.086,1.288-3.351v-0.642
		c0-0.636-0.121-1.266-0.357-1.856c-0.105-0.265-0.219-0.513-0.329-0.736c-0.019-0.139-0.043-0.276-0.072-0.411
		c0.083-0.156,0.162-0.306,0.231-0.445c0.347-0.693,0.527-1.459,0.527-2.235V80.25c0-1.023-0.313-2.016-0.89-2.846
		c0.163-0.5,0.247-1.025,0.247-1.554V75.78c0.851-0.086,1.655-0.388,2.345-0.867c0.188-0.062,0.367-0.142,0.547-0.225
		c-0.09,0.373-0.145,0.76-0.145,1.161v0.644v0.641c0,1.855,1.012,3.477,2.514,4.339c-0.325,0.618-0.664,1.307-0.965,2.058
		c-0.234,0.592-0.356,1.221-0.356,1.857v0.641c0,1.604,0.755,3.031,1.93,3.946c0.03,0.827,0.267,1.63,0.679,2.336
		c-0.008,0.015-0.016,0.028-0.022,0.042c-0.433,0.755-0.659,1.609-0.659,2.48v0.643c0,1.287,0.496,2.523,1.384,3.451l0.014,0.018
		c0.033,0.038,0.07,0.081,0.113,0.129c0.051,0.104,0.105,0.215,0.166,0.329c0.162,0.507,0.363,1.126,0.653,1.804
		c0.08,0.186,0.171,0.365,0.271,0.541c0.021,0.168,0.05,0.336,0.086,0.502c0.19,0.854,0.406,1.824,0.733,2.916
		c0.093,0.31,0.215,0.606,0.363,0.89c0.247,2.53,2.38,4.508,4.976,4.508h1.926c2.725,0,4.938-2.177,4.999-4.886
		c0.074-0.217,0.15-0.414,0.241-0.627c0.055-0.127,0.104-0.258,0.147-0.389c0.312-0.449,0.551-0.947,0.703-1.479
		c0.059-0.204,0.111-0.394,0.165-0.567c0.404-0.443,0.729-0.957,0.953-1.52c0.074-0.186,0.137-0.318,0.291-0.576
		c0.465-0.775,0.708-1.662,0.708-2.566v-0.193c0.484-0.943,0.662-2.029,0.483-3.102c-0.094-0.564-0.188-1.104-0.282-1.643
		c-0.09-0.516-0.18-1.031-0.269-1.569c-0.042-0.249-0.104-0.495-0.182-0.735c0.161-0.49,0.248-1.016,0.248-1.561
		c0-0.402,0-0.809-0.032-1.227c0.026,0.061,0.056,0.121,0.086,0.181c0.509,1.021,1.745,2.687,4.437,2.903v0.068c0,2.762,2.239,5,5,5
		h1.194c0.116,0.123,0.253,0.262,0.412,0.404c0.022,0.066,0.047,0.131,0.072,0.195c0.211,0.535,0.445,0.957,0.602,1.234
		c0.024,0.047,0.052,0.092,0.076,0.139c0.251,0.6,0.616,1.145,1.077,1.604c0.107,0.108,0.229,0.22,0.355,0.332
		c0.786,0.933,1.885,1.542,3.087,1.722c0.456,0.401,0.986,0.721,1.567,0.937c0.017,0.019,0.034,0.037,0.052,0.056l0.011,0.012
		c0.057,0.064,0.126,0.146,0.211,0.24c0.107,0.28,0.24,0.551,0.396,0.809c0.264,0.966,0.813,1.841,1.593,2.5
		c0.91,0.771,2.057,1.186,3.231,1.186c0.272,0,0.549-0.021,0.822-0.068c0.362-0.06,0.711-0.127,1.042-0.194
		c0.824,1.627,2.514,2.741,4.462,2.741c1.056,0,2.146,0,3.361-0.608c1.092-0.546,2.923-1.927,2.923-5.034v-0.551
		c0-0.98-0.289-1.941-0.83-2.76c-0.021-0.032-0.044-0.064-0.064-0.096c-0.178-0.537-0.445-1.041-0.794-1.49
		c-0.088-0.42-0.177-0.836-0.266-1.232c-0.225-1.009-0.755-1.917-1.51-2.605c-0.062-0.131-0.122-0.258-0.182-0.377
		c-0.059-0.115-0.119-0.228-0.186-0.336c-0.05-0.084-0.137-0.271-0.213-0.436c-0.084-0.182-0.164-0.354-0.244-0.514
		c-0.306-0.61-0.729-1.149-1.249-1.588c-0.111-0.125-0.223-0.246-0.33-0.354c-0.22-0.219-0.456-0.416-0.709-0.588
		c-0.211-0.645-0.553-1.238-1.002-1.749c0.11-0.203,0.21-0.413,0.292-0.631c0.614-0.843,0.958-1.871,0.958-2.942v-1.285
		c0-0.861-0.222-1.705-0.643-2.453V82.18c0-0.883-0.233-1.75-0.678-2.514c0.023-0.199,0.036-0.399,0.036-0.604
		c0-0.039,0-0.078,0-0.116c0.415-0.736,0.642-1.578,0.642-2.451v-1.926v-0.643v-1.832v-0.643v-0.644
		c0-0.437-0.057-0.868-0.167-1.283c0.11-0.417,0.167-0.849,0.167-1.282V67.5c0.104-0.474,0.224-0.994,0.322-1.256
		c0.022-0.063,0.046-0.127,0.066-0.19c0.413-0.595,0.695-1.276,0.821-1.998c0.177-0.188,0.338-0.39,0.483-0.601
		c0.141,0.205,0.297,0.4,0.468,0.584l0.029,0.037c0.143,0.176,0.355,0.445,0.645,0.732c0.013,0.014,0.025,0.025,0.038,0.038
		c-0.143,0.465-0.22,0.958-0.22,1.47v0.643c0,0.64,0.123,1.271,0.359,1.865c0.107,0.266,0.222,0.506,0.325,0.711
		c0.04,0.309,0.109,0.612,0.207,0.908c-1.313,0.901-2.176,2.413-2.176,4.127c0,1.053,0,2.143,0.607,3.358
		c0.014,0.024,0.025,0.05,0.039,0.075c0.057,1.22,0.557,2.379,1.409,3.258c0.062,0.893,0.126,1.783,0.191,2.681
		c0.111,1.54,0.228,3.132,0.318,4.709v0.499v0.641v0.642v0.646c0,1.237,0.459,2.428,1.283,3.344v0.416
		c0,1.293,0.5,2.513,1.357,3.425c0.257,1.485,1.17,2.748,2.43,3.476c0.884,1.532,2.527,2.502,4.331,2.502h0.642
		c1.326,0,2.599-0.527,3.535-1.465l0.645-0.643c0.672-0.672,1.138-1.521,1.345-2.448c0.073-0.328,0.166-0.655,0.257-0.983
		c0.074-0.267,0.154-0.554,0.231-0.856c0.009-0.015,0.017-0.03,0.024-0.046l0.076-0.077c0.934-0.937,1.455-2.205,1.455-3.526V94.17
		c0.248-0.441,0.429-0.92,0.534-1.42c0.194-0.922,0.427-1.887,0.651-2.819c0.184-0.767,0.364-1.521,0.528-2.261
		c0.034-0.152,0.04-0.307,0.06-0.461c0.047,0.041,0.087,0.084,0.136,0.127c0.045,0.053,0.091,0.104,0.139,0.156
		c0.063,0.174,0.12,0.338,0.156,0.467c0.302,1.056,0.938,1.97,1.795,2.617c0.376,2.389,2.444,4.217,4.939,4.217h0.402l0.469,0.468
		c0.938,0.935,2.205,1.458,3.528,1.458h1.928c1.491,0,2.896-0.665,3.84-1.797c0.234-0.196,0.453-0.414,0.648-0.65
		c0.16-0.133,0.312-0.277,0.453-0.43c1.294-0.479,2.361-1.482,2.899-2.809h0.411c0.924,0,1.776-0.269,2.52-0.705v1.391
		c0,1.604,0.755,3.031,1.929,3.945c0.015,0.358,0.065,0.711,0.152,1.053c-0.103,0.402-0.155,0.816-0.155,1.238v0.643
		c0,0.324,0.031,0.646,0.093,0.96c-0.061,0.313-0.093,0.635-0.093,0.965c0,1.054,0,2.146,0.609,3.362
		c0.011,0.021,0.021,0.043,0.033,0.064v0.332v0.643c0,1.875,1.031,3.511,2.561,4.365c0.66,1.18,1.784,2.063,3.125,2.406v0.838
		c0,1.326,0.526,2.598,1.465,3.536l0.313,0.313l0.328,0.328c0.938,0.938,2.209,1.465,3.535,1.465h0.643h0.643c2.763,0,5-2.239,5-5
		V110.7c0-0.316-0.028-0.627-0.086-0.927c0.104-0.356,0.207-0.685,0.32-0.948c0.268-0.625,0.406-1.295,0.406-1.976v-2.567
		c0-0.424-0.055-0.839-0.155-1.238c0.104-0.403,0.155-0.819,0.155-1.238v-1.926c0-0.532-0.085-1.059-0.249-1.559
		c0.111-0.344,0.188-0.701,0.225-1.066c0.104-1.031-0.119-2.057-0.616-2.941v-2.045c0-0.893-0.232-1.729-0.643-2.454v-0.022v-0.641
		V82.18v-1.926c0-0.008,0-0.016,0-0.024c0.63-1.119,0.813-2.454,0.478-3.726c1.571-0.844,2.641-2.502,2.641-4.409V70.81v-0.642
		v-0.641v-0.648c0-0.639-0.122-1.271-0.36-1.863c-0.093-0.23-0.188-0.438-0.28-0.624v-0.079c0-1.62-0.771-3.061-1.965-3.975
		c-0.142-0.266-0.273-0.533-0.407-0.8c-0.034-0.069-0.069-0.138-0.104-0.207v-4.463v-1.926v-0.458
		c1.172-0.915,1.926-2.341,1.926-3.943c0-1.054,0-2.144-0.608-3.361c-0.247-0.495-0.667-1.142-1.342-1.702
		c-0.008-0.015-0.017-0.029-0.024-0.044c-0.013-0.087-0.027-0.173-0.044-0.258c0.063-0.316,0.094-0.639,0.094-0.963v-0.642v-0.199
		c0.124-0.032,0.246-0.068,0.366-0.109c0.512,0.173,1.053,0.264,1.603,0.264h0.644h0.641c1.23,0,2.4-0.453,3.303-1.246
		c0.721,0.391,1.536,0.604,2.384,0.604c1.665,0,2.835-0.526,3.646-1.182c0.301,0.071,0.6,0.146,0.901,0.23
		c0.017,0.008,0.032,0.016,0.05,0.023c0.01,0.004,0.02,0.009,0.029,0.014l0.099,0.099c0.938,0.934,2.206,1.458,3.529,1.458h0.643
		c1.896,0,3.545-1.055,4.394-2.609c0.213,0.028,0.43,0.042,0.649,0.042h1.834c2.762,0,5-2.239,5-5v-1.306
		c0.409-0.725,0.644-1.563,0.644-2.454v-1.925C250.115,27.514,247.876,25.275,245.115,25.275z M185.688,66.68
		c0.326-0.664,0.51-1.411,0.51-2.2v-0.567c0.076-0.248,0.152-0.472,0.233-0.662c0.271-0.625,0.409-1.298,0.409-1.979v-0.604
		c0.172-0.281,0.334-0.591,0.5-0.947c0.357-0.366,0.656-0.784,0.887-1.24c0.097,1.13,0.573,2.198,1.359,3.025l0.014,0.016
		c0.061,0.069,0.135,0.157,0.229,0.258c0.087,0.227,0.188,0.446,0.309,0.658v0.761c0,0.891,0.233,1.727,0.642,2.451v1.785
		c-0.125,0.152-0.244,0.313-0.36,0.479c-0.623,0.86-0.959,1.701-1.207,2.322c-0.136,0.338-0.233,0.689-0.292,1.047
		c-0.57-0.254-1.195-0.404-1.849-0.429c-0.213-0.272-0.452-0.524-0.719-0.748c-0.057-0.063-0.112-0.127-0.169-0.187
		c0.01-0.129,0.016-0.26,0.016-0.394v-0.646C186.198,68.09,186.015,67.344,185.688,66.68z M131.535,61.575
		c0.113,0.163,0.236,0.321,0.372,0.471v1.171c-0.094,0.158-0.182,0.311-0.264,0.463c-0.454,0.205-0.864,0.479-1.229,0.8
		c-0.063-0.567-0.22-1.104-0.454-1.599c0.119-0.18,0.229-0.354,0.335-0.516c0.037-0.058,0.074-0.116,0.111-0.173
		C130.81,62.042,131.184,61.825,131.535,61.575z M34.345,76.747c-0.203,0.127-0.417,0.277-0.631,0.459
		c-0.374,0.217-0.721,0.481-1.028,0.789c-0.797-1.119-2.044-1.896-3.478-2.068v-0.721c0-0.789-0.184-1.537-0.509-2.201
		c0.099-0.203,0.184-0.41,0.255-0.625c0.414-0.594,0.695-1.276,0.821-2c0.836-0.889,1.327-2.066,1.355-3.312
		c0.386,0.315,0.823,0.576,1.303,0.769c0.188,0.076,0.313,0.135,0.571,0.289c0.228,0.138,0.466,0.256,0.712,0.354
		c0.094,0.038,0.175,0.071,0.265,0.117c0.026,0.021,0.052,0.041,0.074,0.06l0.034,0.026c0.45,0.421,0.977,0.749,1.545,0.979
		c-0.404,0.721-0.655,1.541-0.655,2.428v0.55c0,0.376,0.05,0.741,0.129,1.093c-0.137,0.27-0.278,0.564-0.414,0.9
		C34.424,75.315,34.309,76.036,34.345,76.747z M29.251,33.527h-0.644h-0.031c-0.064-0.116-0.135-0.23-0.208-0.342
		c0.433-0.428,0.78-0.93,1.03-1.478c0.01,0.01,0.02,0.021,0.027,0.031c0.065,0.123,0.125,0.23,0.177,0.323
		c0.026,0.047,0.054,0.094,0.078,0.142c0.241,0.577,0.585,1.096,1.007,1.535C30.227,33.6,29.742,33.527,29.251,33.527z
		 M37.178,29.492c0.097-0.064,0.2-0.137,0.326-0.225C37.379,29.354,37.273,29.427,37.178,29.492z M37.096,29.545
		c-0.063,0.042-0.127,0.081-0.183,0.111C36.97,29.625,37.03,29.587,37.096,29.545z M36.831,29.699
		c-0.049,0.024-0.098,0.044-0.143,0.059C36.735,29.743,36.782,29.724,36.831,29.699z M36.615,29.781
		c-0.049,0.012-0.1,0.018-0.148,0.02C36.517,29.799,36.566,29.793,36.615,29.781z M36.402,29.806c-0.019,0-0.039-0.003-0.058-0.004
		C36.363,29.803,36.384,29.806,36.402,29.806z M36.206,29.786c-0.024-0.004-0.054-0.009-0.079-0.015
		C36.154,29.776,36.181,29.781,36.206,29.786z M35.961,29.733c-0.029-0.007-0.06-0.014-0.09-0.022
		C35.903,29.72,35.931,29.726,35.961,29.733z"/>
	<g>
		<path fill="#CA0505" d="M57.77,84.741c-0.274-0.457-0.458-0.916-0.642-1.283c-0.275-0.272-0.459-0.457-0.643-0.641
			c-0.274-0.275-0.459-0.459-0.643-0.643c-0.184-0.275-0.459-0.459-0.643-0.643c0-1.283,0-2.566,0-3.761
			c-0.184-0.272-0.458-0.457-0.643-0.642c0-0.272,0-0.457,0-0.641c-0.183-0.275-0.458-0.459-0.642-0.643c0-0.643,0-1.283,0-1.926
			c0-0.185,0-0.459,0-0.642c0-0.644,0-1.19,0-1.834c-0.184-0.274-0.458-0.459-0.643-0.644c0.185-0.272,0.459-0.456,0.643-0.641
			c0.184,0,0.459,0,0.642,0c0.185,0,0.459,0,0.643,0c0.184-0.275,0.459-0.459,0.643-0.641c0-0.277,0-0.461,0-0.645
			c0-0.185,0-0.457,0-0.642s0-0.459,0-0.644c0.275-0.184,0.275-0.184-0.643-0.641c-0.184,0-0.458,0-0.643,0
			c-0.183-0.184-0.458-0.459-0.642-0.643c0-0.184,0-0.459,0-0.643c-0.184-0.185-0.458-0.457-0.643-0.642c-0.184,0-0.366,0-0.55,0
			c-0.274-0.185-0.459-0.366-0.643-0.551c-0.275-0.272-0.459-0.457-0.643-0.642c0-0.274,0-0.459,0-0.643
			c0.366-0.184,0.825-0.459,1.284-0.643c-0.918-0.185-1.743-0.459-2.566-0.644c0-0.184,0-0.459,0-0.641c0-0.184,0-0.459,0-0.643
			c0.183-0.184,0.365-0.459,0.642-0.643c0-0.182,0-0.457,0-0.641c0.183,0,0.366,0,0.642,0c0-0.643,0-1.285,0-1.834
			c-0.274,0-0.459,0-0.642,0c-0.275,0-0.459,0-0.642,0c-0.644,0.365-1.285,0.824-1.928,1.191c-0.184-0.184-0.458-0.459-0.642-0.643
			c-0.184-0.365-0.458-0.824-0.643-1.191c-0.184-0.184-0.458-0.459-0.643-0.643c-0.184-0.182-0.458-0.457-0.642-0.641
			c-0.185-0.184-0.367-0.459-0.552-0.643c0-0.459,0-0.824,0-1.283c0.185-0.185,0.367-0.458,0.552-0.642c0-0.184,0-0.459,0-0.642
			c-0.185,0-0.367,0-0.552,0c-0.273,0.183-0.458,0.458-0.642,0.642c-0.183,0-0.458,0-0.641,0c-0.826-0.184-1.743-0.459-2.568-0.642
			c-0.458-0.184-0.825-0.367-1.283-0.551c-0.643-0.459-1.285-0.917-1.835-1.284c-0.273-0.275-0.458-0.459-0.642-0.643
			c-0.184-0.274-0.458-0.458-0.643-0.642c-0.184-0.184-0.459-0.459-0.643-0.643c-0.185,0-0.458,0-0.643,0
			c-0.184-0.183-0.459-0.458-0.642-0.642c-0.184-0.184-0.459-0.458-0.642-0.642c-0.185-0.184-0.459-0.458-0.643-0.642
			c-0.185,0-0.367,0-0.551,0c-0.459-0.184-0.918-0.367-1.284-0.551c-0.274,0-0.458,0-0.642,0c-0.275-0.274-0.459-0.459-0.643-0.642
			c-0.274-0.275-0.459-0.459-0.642-0.643c0-0.458,0-0.916,0-1.283c-0.185-0.275-0.459-0.458-0.643-0.643c0-0.458,0-0.917,0-1.283
			c0.184-0.642,0.458-1.283,0.643-1.834c0-0.275,0-0.458,0-0.643c-0.185-0.274-0.459-0.458-0.643-0.642c-0.185,0-0.459,0-0.644,0
			c-0.183,0-0.458,0-0.642,0c-0.184,0.367-0.366,0.826-0.55,1.284c0,0.184,0,0.367,0,0.643c-0.459,0-0.917,0-1.284,0
			c-0.275-0.459-0.458-0.918-0.643-1.285c-0.274-0.274-0.459-0.458-0.642-0.642c0-0.274,0-0.458,0-0.642
			c-0.275-0.458-0.459-0.917-0.643-1.284c0-0.274,0-0.458,0-0.642c-0.274-0.275-0.459-0.459-0.643-0.642c0-0.275,0-0.459,0-0.642
			c-0.275-0.184-0.458-0.459-0.642-0.642c0-0.185,0-0.367,0-0.551c0-0.275,0-0.458,0-0.643c0.184-0.458,0.365-0.917,0.642-1.283
			c0.184-0.458,0.367-0.917,0.643-1.283c0.184-0.275,0.366-0.459,0.643-0.643c0-0.275,0-0.459,0-0.643c-0.643,0-1.284,0-1.926,0
			c0.184-0.183,0.365-0.458,0.642-0.642c0.184-0.458,0.367-0.824,0.644-1.283c0.183,0,0.365,0,0.642,0
			c0.917-0.459,0.917-0.459,0.642-0.643c0.185-0.642,0.366-1.191,0.643-1.833c-0.275-0.275-0.458-0.459-0.643-0.642
			c0.366-0.276,0.825-0.459,1.284-0.643c0.184,0.184,0.366,0.366,0.643,0.643c0.184,0,0.366,0,0.55,0c0.642,0,1.284,0,1.927,0
			c0,0.366,0,0.824,0,1.283c0.824,0,1.649,0,2.566,0c0.366,0,0.825,0,1.192,0c0.184,0.183,0.458,0.366,0.643,0.55
			c0.183,0.184,0.458,0.459,0.642,0.642c0,0.184,0,0.459,0,0.643c-0.642,0.184-1.283,0.459-1.834,0.642c0,0.184,0,0.459,0,0.642
			c0.184,0.184,0.366,0.459,0.551,0.642c0.184,0.459,0.458,0.826,0.643,1.285c0.823,0.183,1.74,0.366,2.566,0.642
			c0.185,0.184,0.459,0.366,0.643,0.642c0.184,0.366,0.366,0.825,0.642,1.283c0,0.643,0,1.193,0,1.835
			c0.184,0.183,0.367,0.366,0.642,0.642c0,0.183,0,0.366,0,0.642c0,0.184,0,0.367,0,0.642c-0.273,0-0.458,0-0.642,0
			c0,1.01,0,2.109,0,3.21c0.184,0,0.367,0,0.642,0c0.185,0.551,0.367,1.192,0.552,1.834c-0.185,0-0.367,0-0.552,0
			c-0.273,0.366-0.458,0.825-0.642,1.283c0,0.367,0,0.826,0,1.284c0.55,0.184,1.192,0.367,1.835,0.642
			c0.183,0.184,0.458,0.367,0.643,0.643c0.458,0.183,0.824,0.367,1.282,0.642c0.185,0.184,0.458,0.367,0.643,0.551
			c0,0.184,0,0.458,0,0.642c0.184,0.184,0.459,0.458,0.643,0.642c0.185,0.184,0.459,0.459,0.644,0.642
			c0.183,0.184,0.458,0.459,0.641,0.643c0,0.184,0,0.367,0,0.642c0.184,0.184,0.367,0.367,0.642,0.643
			c0.185-0.459,0.367-0.917,0.552-1.284c-0.185-0.184-0.367-0.459-0.552-0.643c0-0.458,0-0.825,0-1.283
			c0.185-0.184,0.367-0.458,0.552-0.642c0-0.367,0-0.825,0-1.192c0-0.275,0-0.459,0-0.643c0.184-0.274,0.458-0.458,0.642-0.642
			c0-0.458,0-0.917,0-1.284c0.185-1.65,0.459-3.393,0.643-5.043c0.185-0.458,0.459-0.917,0.643-1.284
			c-0.184-0.274-0.458-0.458-0.643-0.642c0-1.559,0-2.934,0-4.401c-0.184-0.275-0.458-0.458-0.643-0.642
			c-1.101-3.118-0.917-4.311,0-7.611c0-0.184,0-0.459,0-0.643c-0.184,0-0.458,0-0.642,0c-0.185,0.184-0.367,0.459-0.552,0.643
			c-0.642,0-1.281,0-1.925,0c-0.184,0.184-0.459,0.366-0.643,0.643c-0.185,0.183-0.458,0.366-0.643,0.642
			c-0.184-0.275-0.458-0.459-0.642-0.642c-0.184-0.276-0.458-0.459-0.642-0.643c-0.185-0.459-0.459-0.825-0.643-1.284
			c-0.185-0.184-0.459-0.458-0.643-0.642c-0.185-0.184-0.367-0.458-0.552-0.642c0-0.459,0-0.826,0-1.284c0-0.184,0-0.459,0-0.643
			c0.275-0.183,0.275-0.183-0.642-0.642c0-0.366,0-0.733,0-1.191c-1.283,0-1.283,0-1.283,0.642c-0.184,0.184-0.459,0.367-0.643,0.55
			c-0.185,0.184-0.458,0.459-0.643,0.642c-0.184-0.183-0.459-0.458-0.642-0.642c-0.184-0.366-0.459-0.733-0.642-1.191
			c-0.185,0-0.459,0-0.643,0c-0.367-0.184-0.826-0.459-1.192-0.643c0-0.184,0-0.458,0-0.642c-0.275,0-0.458,0-0.643,0
			c-0.458,0.184-0.917,0.458-1.283,0.642c-0.274,0-0.459,0-0.642,0c0-0.184,0-0.458,0-0.642c-0.185,0-0.459,0-0.643,0
			c-0.459,0-0.825,0-1.284,0c0-0.184,0-0.459,0-0.642c0-0.184,0-0.458,0-0.642c-0.184-0.459-0.366-0.826-0.55-1.284
			c-0.275,0-0.46,0-0.643,0c-0.459,0.458-0.918,0.825-1.284,1.284c-0.459,0-0.917,0-1.283,0c0,0.184,0,0.458,0,0.642
			c-0.459,0.642-0.918,1.283-1.283,1.926c-0.275,0.184-0.459,0.458-0.644,0.642c-0.184-0.184-0.366-0.458-0.55-0.642
			c0-0.184,0-0.459,0-0.643c-1.283,0-1.283,0-1.283,0.643c-0.274,0-0.459,0-0.643,0c0-0.184,0-0.459,0-0.643s0-0.458,0-0.642
			c0-0.184,0-0.459,0-0.642c-1.284,0-1.284,0-1.284,0.642c0,0.184,0,0.458,0,0.642c-0.274,0-0.458,0-0.642,0
			c0,1.284,0,1.284,0.642,1.284c0,0.367,0,0.825,0,1.191c-0.274,0.184-0.458,0.459-0.642,0.643c-0.458,0-0.917,0-1.283,0
			c-0.275,0.184-0.459,0.458-0.644,0.642c-0.184,0.643-0.458,1.284-0.642,1.926c-0.184,0.184-0.458,0.459-0.642,0.642
			c-0.185,0.459-0.459,0.826-0.552,1.285c0,0.366,0,0.824,0,1.283c-0.273,0.183-0.458,0.366-0.642,0.55c0,1.101,0,2.109,0,3.209
			c0.367,0,0.733,0,1.192,0c-0.093,0.459-0.185,0.826-0.275,1.285c-0.275-0.459-0.642-0.826-0.917-1.285c-0.275,0-0.459,0-0.642,0
			c-0.275-0.183-0.459-0.458-0.644-0.642c0-0.183,0-0.458,0-0.642c-0.458,0.184-0.916,0.459-1.283,0.642c0,0.184,0,0.459,0,0.642
			c0.185,0.184,0.367,0.367,0.643,0.643c0.642,0,0.642,1.284,1.284,1.284c0.183,0.184,0.365,0.366,0.642,0.642
			c0,0.184,0,0.366,0,0.642c-0.275,0.184-0.459,0.367-0.642,0.642c-0.644,0-0.644,0-0.644,1.193c0.367,0,0.825,0,1.284,0
			c0.184,0.642,0.367,1.283,0.642,1.925c0.093,0.184,0.367,0.367,0.552,0.642c0.184,0.185,0.458,0.367,0.642,0.643
			c0.184,0.642,0.458,1.283,0.642,1.925c0,1.01,0,2.109,0,3.118c-0.642,0-0.642,0-0.642,1.284c1.284,0,1.284,0,1.284-0.643
			c0.366-0.274,0.825-0.458,1.283-0.642c0.184,0.184,0.366,0.367,0.642,0.642c0,0.367,0,0.826,0,1.284
			c-0.274,0.184-0.458,0.367-0.642,0.642c-0.458,0.184-0.917,0.367-1.283,0.643c0,0.183,0,0.367,0,0.642c0.183,0,0.366,0,0.642,0
			c0.367,0.184,0.825,0.367,1.283,0.551c0.184,0,0.367,0,0.643,0c0.185,0.184,0.366,0.458,0.643,0.642
			c0.184,0.184,0.367,0.458,0.643,0.642c-0.459,0.184-0.918,0.459-1.284,0.642c0,0.184,0,0.459,0,0.643
			c0.643,0.184,1.284,0.367,1.927,0.642c0,0.367,0,0.826,0,1.286c0,0.182,0,0.365,0,0.641c0.184,0.184,0.365,0.367,0.642,0.551
			c0.733-0.184,1.559-0.367,2.477-0.551c0.184,0.184,0.366,0.367,0.643,0.551c0.366,0.458,0.825,0.825,1.283,1.283
			c0.551,0.184,1.191,0.459,1.834,0.641c0.184,0,0.459,0,0.642,0c0,0.643,0,1.285,0,1.926c0,0.184,0,0.459,0,0.643
			c0.185,0.184,0.459,0.367,0.644,0.643c0.458,0,0.824,0,1.283,0c0,1.191,0,1.191,0.643,1.191c0.366,0.092,0.825,0.184,1.283,0.367
			c-0.458-0.367-0.917-0.643-1.283-1.01c0-0.184,0-0.365,0-0.549c0.184-0.275,0.366-0.459,0.642-0.643c0.366,0,0.825,0,1.284,0
			c0.184,0.184,0.366,0.367,0.551,0.643c0,0.549,0,1.191,0,1.834c0.184,0,0.458,0,0.643,0c0.458,0,0.823,0,1.282,0
			c0.185,0.184,0.458,0.459,0.643,0.641c0,0.184,0,0.459,0,0.643c0.459,0.184,0.826,0.459,1.284,0.643
			c0.184,0.182,0.366,0.457,0.642,0.641c-1.283,0.184-2.567,0.459-3.851,0.643c0,0.185,0,0.459,0,0.644
			c0.458,0.185,0.823,0.367,1.282,0.644c0.458,0.184,0.825,0.367,1.284,0.641c0.185,0.184,0.459,0.367,0.643,0.551
			c0.824,0.184,1.649,0.457,2.477,0.641c0.183,0.185,0.458,0.459,0.642,0.644c0.185,0.185,0.458,0.459,0.643,0.644
			c0.184,0.182,0.458,0.457,0.642,0.641c0.185,0.459,0.458,0.826,0.643,1.283c0,0.184,0,0.367,0,0.645
			c-0.185,0.182-0.458,0.365-0.643,0.641c0,0.184,0,0.367,0,0.641c-0.184,0-0.458,0-0.642,0c0,1.285,0,1.285,0.642,1.285
			c0,0.365,0,0.732,0,1.191c0.458,0,0.825,0,1.284,0c0-0.184,0-0.459,0-0.643c0-0.365,0-0.824,0-1.191c0.459,0,0.825,0,1.283,0
			c0,0.367,0,0.826,0,1.191c-0.458,0.184-0.824,0.459-1.283,0.643c0,0.457,0,0.824,0,1.283c0,0.184,0,0.367,0,0.641
			c-0.459,0-0.826,0-1.284,0c0-0.272,0-0.457,0-0.641s0-0.459,0-0.643c-1.282,0-1.282,0-1.282,0.643
			c-0.185,0.184-0.46,0.367-0.643,0.641c-0.185,0.367-0.459,0.826-0.643,1.285c0.184,0,0.458,0,0.643,0c0.183,0,0.458,0,0.643,0
			c0.184,0,0.458,0,0.642,0c0.184,0.184,0.458,0.367,0.642,0.641c0.185,0.185,0.458,0.367,0.643,0.642c0,0.185,0,0.366,0,0.644
			c0,0.366,0,0.825,0,1.285c-0.458,0-0.825,0-1.283,0c-0.184,0.182-0.458,0.364-0.642,0.549c0,0.184,0,0.366,0,0.643
			c0,0.367,0,0.824,0,1.283c-0.826,0-1.651,0-2.478,0c0-0.459,0-0.916,0-1.283c-1.283,0-1.283,0-1.283,0.641
			c-0.184,0-0.459,0-0.643,0c-0.185,0.367-0.458,0.826-0.643,1.285c-0.184,0-0.459,0-0.642,0c-0.184,0.367-0.459,0.824-0.642,1.283
			c-0.643,0-1.284,0-1.835,0c-0.458-0.275-0.917-0.459-1.283-0.643c-0.459,0-0.917,0-1.283,0c-0.185-0.273-0.459-0.457-0.643-0.642
			c0-0.274,0-0.459,0-0.644c-0.185-0.274-0.459-0.459-0.644-0.643c0-0.273,0-0.457,0-0.641c-0.183,0-0.458,0-0.642,0
			s-0.366,0-0.55,0c-0.275,0-0.459,0-0.643,0c-0.274-0.275-0.459-0.459-0.643-0.643c-0.275-0.185-0.458-0.367-0.643-0.55
			c-0.459-0.274-0.917-0.459-1.283-0.644c-0.366-0.366-0.643-0.643-1.01-1.008c0.092-0.276,0.185-0.643,0.367-0.918
			c0.184,0,0.367,0,0.643,0c0-0.641,0-1.283,0-1.926c-0.274,0-0.459,0-0.643,0c-0.275-0.457-0.458-0.824-0.642-1.283
			c-0.275-0.184-0.459-0.459-0.644-0.641c-0.184-0.184-0.366-0.459-0.55-0.643c0.184-0.184,0.366-0.365,0.55-0.549
			c0.185-0.275,0.367-0.459,0.644-0.644c0.184,0,0.365,0,0.642,0c0.184-0.274,0.367-0.459,0.643-0.644c0-0.272,0-0.457,0-0.641
			c0.184-0.275,0.366-0.459,0.643-0.641c0-0.277,0-0.461,0-0.645c0-0.185,0-0.457,0-0.642c0.183-0.185,0.366-0.459,0.642-0.644
			c0.185-0.184,0.366-0.459,0.643-0.641c0-0.184,0-0.459,0-0.643c-0.275-0.184-0.458-0.459-0.643-0.643c0-0.457,0-0.824,0-1.191
			c0-1.283,0-2.568,0-3.852c0-0.184,0-0.459,0-0.643c-0.917,0-1.741,0-2.566,0c0,0.184,0,0.459,0,0.643c-0.275,0-0.459,0-0.644,0
			c-0.184,0-0.366,0-0.55,0c0,0.184,0,0.459,0,0.643c0,0.457,0,0.824,0,1.284c-0.917,0-1.742,0-2.567,0c0-0.185,0-0.459,0-0.644
			c-0.274-0.184-0.459-0.459-0.643-0.641c-0.274,0-0.458,0-0.642,0c-0.274,0.182-0.458,0.457-0.643,0.641
			c0.185,0.644,0.367,1.285,0.643,1.929c-0.274,0.184-0.458,0.366-0.643,0.641c0,0.184,0,0.367,0,0.551
			c-0.274,0.641-0.459,1.283-0.642,1.926c-0.275,0.182-0.459,0.457-0.644,0.641c-0.184,0.459-0.458,0.826-0.642,1.283
			c-0.184,0.185-0.458,0.367-0.642,0.646c-0.185,0.364-0.459,0.823-0.552,1.28c0,0.185,0,0.367,0,0.644c0,0.185,0,0.367,0,0.644
			c-0.273,0.274-0.458,0.549-0.642,0.916c0.367,0.092,0.733,0.184,1.192,0.274c0,1.283,0,1.283-0.552,1.283
			c-0.273,0-0.458,0-0.642,0c0,0.457,0,0.823,0,1.282c-0.092,0.644-0.185,1.375-0.185,2.019c0.275,0.185,0.552,0.367,0.825,0.55
			c0.092,0.184,0.367,0.366,0.552,0.643c0,0.184,0,0.367,0,0.643c0.184,0.182,0.458,0.365,0.642,0.549s0.458,0.367,0.642,0.643
			c0,0.367,0,0.824,0,1.283c0.459,0.185,0.825,0.367,1.284,0.644c0,0.185,0,0.366,0,0.642c-0.274,0-0.459,0-0.642,0
			c0,1.282,0,1.282,0.642,1.282c0.185,0.187,0.367,0.367,0.643,0.646c0,0.365,0,0.824,0,1.19c-0.274,0.185-0.458,0.457-0.643,0.642
			c0.185,0,0.367,0,0.643,0c0.184-0.185,0.366-0.457,0.642-0.642c0.184,0,0.367,0,0.643,0c0.185,0,0.366,0,0.643,0
			c0.184,0.185,0.367,0.457,0.643,0.642c0,0.184,0,0.461,0,0.643c0,0.367,0,0.826,0,1.285c0.55,0,1.191,0,1.833,0
			c0.185,0.182,0.367,0.365,0.644,0.641c0,0.367,0,0.824,0,1.285c0.642,0,1.283,0,1.926,0c0.183,0,0.366,0,0.642,0
			c0.825,0.184,1.65,0.367,2.477,0.641c0.184,0,0.459,0,0.642,0c0.185,0,0.459,0,0.644,0c0.184,0.826,0.458,1.652,0.643,2.478
			c0.183,0.459,0.366,0.825,0.642,1.284c0.184,0.185,0.366,0.457,0.643,0.642c0,0.185,0,0.367,0,0.644
			c0.184,0.365,0.366,0.826,0.642,1.191c0.185,0.184,0.366,0.459,0.643,0.643c0,0.459,0,0.824,0,1.283
			c0.184,0.185,0.366,0.459,0.643,0.644c0.184,0.182,0.366,0.459,0.551,0.644c0.184,0.184,0.458,0.456,0.643,0.641
			c0.183,0.184,0.458,0.457,0.642,0.641c0.183,0.459,0.458,0.826,0.642,1.285c0.185-0.277,0.458-0.459,0.643-0.643
			c0-0.459,0-0.826,0-1.283c0-0.185,0-0.457,0-0.641c0-0.644,0-1.285,0-1.927c0-0.185,0-0.459,0-0.644c0-0.367,0-0.823,0-1.19
			c0.184,0,0.459,0,0.643,0c0-1.286,0-1.286-0.643-1.286c0-0.457,0-0.824,0-1.283c0.459,0,0.826,0,1.284,0
			c0.184,0.367,0.367,0.643,0.642,1.008c0.367-0.182,0.825-0.272,1.192-0.365c-0.185-0.184-0.367-0.459-0.551-0.643
			c-0.274,0-0.458,0-0.643,0c-0.273-0.184-0.458-0.459-0.642-0.643c0-0.459,0-0.824,0-1.283c0.367-0.184,0.824-0.459,1.282-0.643
			c0-0.184,0-0.367,0-0.551c0.367-0.273,0.826-0.457,1.193-0.642c0.184,0.367,0.458,0.824,0.643,1.19c0,0.459,0,0.826,0,1.283
			c0,0.185,0,0.461,0,0.644c1.282,0,1.282,0,1.282-0.644c0-0.182,0-0.457,0-0.641c-0.184-0.184-0.458-0.459-0.642-0.643
			c-0.184-0.824-0.458-1.652-0.642-2.478c0.642-0.274,1.282-0.459,1.925-0.641c0.643-0.277,1.285-0.459,1.926-0.644
			c0.184-0.274,0.367-0.459,0.642-0.643c1.01-0.182,2.02-0.459,3.118-0.643c0.185-0.185,0.459-0.457,0.643-0.642
			c0.459-0.185,0.825-0.366,1.284-0.551c0.184,0,0.366,0,0.643,0c0.642-0.274,1.283-0.457,1.926-0.642c0.183,0,0.366,0,0.55,0
			c0.459-0.276,0.825-0.459,1.283-0.645c0.184,0.186,0.459,0.367,0.642,0.645c0.644,0.916,0.644,0.916,2.568,1.832
			c0,0.644,0,0.644,1.284,0.644c0-0.644,0-1.283,0-1.834c-0.275,0-0.459,0-0.644,0C58.137,85.569,57.953,85.108,57.77,84.741z
			 M36.862,24.589c-0.184,0.366-0.459,0.824-0.643,1.191c-0.184-0.184-0.366-0.459-0.458-0.733
			C36.128,24.864,36.495,24.681,36.862,24.589z M35.578,28.99c0.642,0.092,1.283,0.184,1.926,0.276
			c-0.917,0.642-0.917,0.642-1.926,0.366C35.578,29.357,35.578,29.173,35.578,28.99z M34.295,22.021c0.183,0,0.458,0,0.642,0
			c0,0.184,0,0.459,0,0.642c-0.184,0-0.367,0-0.642,0C34.295,22.48,34.295,22.296,34.295,22.021z M22.924,21.379
			c0.184,0,0.366,0,0.642,0c0,0.458,0,0.825,0,1.283c-0.184,0-0.458,0-0.642,0C22.924,22.296,22.924,21.837,22.924,21.379z
			 M15.954,26.422c-0.185,0-0.366,0-0.643,0c0-0.183,0-0.366,0-0.642c0.185,0,0.458,0,0.643,0
			C15.954,25.964,15.954,26.24,15.954,26.422z M19.164,34.035c-0.275,0-0.459,0-0.644,0c0-0.185,0-0.367,0-0.551
			c0.185,0,0.367,0,0.644,0C19.164,33.667,19.164,33.85,19.164,34.035z M31.177,53.017c-0.184,0-0.459,0-0.642,0
			c0-0.184,0-0.367,0-0.642c0.183,0,0.365,0,0.642,0C31.177,52.558,31.177,52.833,31.177,53.017z M35.578,51.825
			c-0.185,0-0.367,0-0.643,0c0-0.459,0-0.825,0-1.284c0.184,0,0.458,0,0.643,0C35.578,50.908,35.578,51.366,35.578,51.825z
			 M38.146,59.344c-0.273,0-0.458,0-0.642,0c0-0.184,0-0.459,0-0.643c0.184,0,0.367,0,0.642,0
			C38.146,58.885,38.146,59.161,38.146,59.344z M38.146,53.659c-0.184,0-0.458,0-0.642,0c0-0.185,0-0.366,0-0.642
			c0.184,0,0.367,0,0.642,0C38.146,53.201,38.146,53.474,38.146,53.659z M41.905,57.51c-0.366,0-0.824,0-1.282,0
			c0-0.184,0-0.459,0-0.643c0.458,0,0.824,0,1.282,0C41.905,57.051,41.905,57.235,41.905,57.51z M22.924,66.313
			c0.366,0,0.825,0,1.284,0c0,0.184,0,0.459,0,0.643c-0.459,0-0.826,0-1.284,0C22.924,66.772,22.924,66.588,22.924,66.313z
			 M17.88,73.922c-0.458,0-0.825,0-1.283,0c0-0.185,0-0.365,0-0.641c0.366,0,0.825,0,1.283,0
			C17.88,73.463,17.88,73.739,17.88,73.922z M19.806,77.772c-0.458,0-0.825,0-1.284,0c0-0.182,0-0.457,0-0.641
			c0.367,0,0.826,0,1.284,0C19.806,77.315,19.806,77.499,19.806,77.772z M20.448,75.206c-0.185,0-0.459,0-0.644,0
			c0-0.184,0-0.365,0-0.641c0.185,0,0.367,0,0.644,0C20.448,74.749,20.448,74.932,20.448,75.206z M21.09,65.03
			c0.366,0,0.825,0,1.191,0c0,0.184,0,0.457,0,0.641C21.09,65.67,21.09,65.67,21.09,65.03z M22.924,87.86c-0.459,0-0.826,0-1.192,0
			c0-0.182,0-0.365,0-0.643c0.366,0,0.733,0,1.192,0C22.924,87.401,22.924,87.678,22.924,87.86z M31.177,90.426
			c-0.184,0-0.459,0-0.642,0c0-0.457,0-0.824,0-1.281c0.183,0,0.365,0,0.642,0C31.177,89.51,31.177,89.969,31.177,90.426z
			 M34.937,99.234c-0.184,0-0.367,0-0.642,0c0-0.185,0-0.366,0-0.644c0.183,0,0.458,0,0.642,0
			C34.937,98.775,34.937,99.049,34.937,99.234z M45.115,76.491c-0.184,0-0.366,0-0.643,0c0-0.184,0-0.459,0-0.643
			c0.185,0,0.367,0,0.643,0C45.115,76.032,45.115,76.215,45.115,76.491z"/>
		<path fill="#CA0505" d="M79.228,32.2c-0.184,0-0.367,0-0.551,0c-0.274,0-0.458,0-0.642,0c-0.275,0-0.459,0-0.643,0
			c-0.274,0-0.458,0-0.642,0c-0.275-0.275-0.459-0.458-0.644-0.642c-0.458-0.275-0.824-0.458-1.283-0.642
			c-0.184-0.275-0.458-0.459-0.643-0.642c-0.825,0-1.649,0-2.476,0c0,0.366,0,0.825,0,1.283c-0.275,0.184-0.459,0.366-0.644,0.642
			c-0.273,0-0.458,0-0.641,0c-0.644,0.184-1.284,0.367-1.927,0.642c0,0.185,0,0.367,0,0.643c0,1.009,0,2.017,0,3.117
			c-0.093,0.826-0.093,1.743-0.184,2.659c0.825,0.826,0.825,0.826,2.109,1.193c0.183,0.183,0.366,0.366,0.641,0.55
			c0.644,0,1.284,0,1.928,0c0,0.184,0,0.458,0,0.642c1.19,0,1.19,0,1.19-0.642c0.185,0,0.459,0,0.643,0
			c0.184-0.184,0.459-0.367,0.643-0.55c0-0.275,0-0.459,0-0.643c0.184-0.275,0.458-0.458,0.642-0.643
			c0.185-0.274,0.367-0.458,0.644-0.642c0.184,0.184,0.366,0.367,0.642,0.642c0,0.185,0,0.367,0,0.643c1.283,0,1.283,0,1.283-0.643
			c0.184-0.458,0.367-0.916,0.551-1.283c-0.184-0.274-0.367-0.458-0.551-0.642c0-0.643,0-1.284,0-1.926
			c0.184-0.642,0.367-1.283,0.551-1.834c0.185,0,0.458,0,0.643,0C79.869,32.2,79.869,32.2,79.228,32.2z"/>
		<path fill="#CA0505" d="M107.196,66.313c0.185,0,0.366,0,0.551,0c0-1.283,0-1.283-0.551-1.283
			c0.366-0.184,0.733-0.367,1.191-0.551c0.184-1.283,0.367-2.568,0.643-3.852c0-0.184,0-0.459,0-0.643
			c0.185-0.457,0.366-0.824,0.643-1.283c0-0.184,0-0.459,0-0.643c-0.275-0.641-0.458-1.191-0.643-1.834
			c-0.274-1.1-0.459-2.107-0.643-3.208c0-0.184,0-0.459,0-0.642c0-0.184,0-0.367,0-0.551c-0.274-1.284-0.458-2.568-0.642-3.854
			c-0.185-0.458-0.366-0.825-0.551-1.283c-0.274-0.643-0.459-1.284-0.642-1.835c-0.275,0-0.459,0-0.643,0
			c-0.275-0.274-0.458-0.458-0.644-0.642c-0.273,0-0.458,0-0.642,0c-0.274-0.274-0.458-0.458-0.643-0.642
			c-0.642,0-0.642,0-0.642-1.284c-0.458,0-0.917,0-1.284,0c-0.642-0.275-1.283-0.458-1.925-0.642c-0.184,0-0.367,0-0.551,0
			c-0.275-0.184-0.458-0.458-0.644-0.642c-0.273,0-0.458,0-0.642,0c-0.274,0-0.459,0-0.643,0c0-0.184,0-0.367,0-0.55
			c-1.926,0-1.926,0-1.926,0.55c-0.184,0-0.459,0-0.643,0c-0.184,0.184-0.458,0.458-0.643,0.642c-0.824,0-1.74,0-2.476,0
			c0-0.642,0-0.642-1.284-0.642c0,0.458,0,0.825,0,1.283c-0.916,0-1.741,0-2.566,0c0-0.458,0-0.825,0-1.283
			c-0.185-0.642-0.459-1.284-0.643-1.835c-0.642-1.008-0.642-1.008-1.926-1.283c-0.184,0.367-0.459,0.825-0.643,1.283
			c0,0.185,0,0.367,0,0.643c-0.184,0.184-0.366,0.367-0.551,0.643c-0.184,0.824-0.458,1.558-0.642,2.475
			c-0.185,0.185-0.458,0.367-0.643,0.643c0,0.184,0,0.367,0,0.642c-0.184,0.367-0.457,0.825-0.643,1.284c0,0.183,0,0.367,0,0.642
			c-0.183,0-0.458,0-0.642,0c0,1.009,0,2.109,0,3.118c0.184,0,0.459,0,0.642,0c0,0.367,0,0.825,0,1.284
			c0.186,0.184,0.459,0.367,0.643,0.644c0,0.365,0,0.824,0,1.191c-0.184,0.183-0.457,0.458-0.643,0.642c0,0.825,0,1.741,0,2.567
			c0,0.184,0,0.459,0,0.641c-0.458,0.184-0.825,0.459-1.284,0.643c0,0.367,0,0.826,0,1.191c0.185,0.184,0.459,0.459,0.644,0.643
			c0.826,1.283,1.741,2.568,2.566,3.852c0,0.459,0,0.826,0,1.285c-0.642,0-1.282,0-1.926,0c0,1.19,0,1.19,0.643,1.19
			c0.185,0.185,0.458,0.457,0.643,0.642c-0.185,0.184-0.458,0.459-0.643,0.643c0,0.184,0,0.459,0,0.643
			c0.185,0.457,0.458,0.824,0.643,1.283c0,0.184,0,0.457,0,0.641c0,0.459,0,0.826,0,1.285c-0.185,0.185-0.458,0.367-0.643,0.642
			c-0.184,0.366-0.457,0.825-0.643,1.284c0,1.648,0,3.3,0,5.041c0.186,0.185,0.459,0.367,0.643,0.642
			c0.185,0.185,0.458,0.367,0.643,0.644c0,0.367,0,0.826,0,1.285c-0.185,0.182-0.458,0.364-0.643,0.549c-0.184,0-0.457,0-0.643,0
			c0,1.283,0,1.283,0.643,1.283c0.185,0.184,0.458,0.366,0.643,0.643c0.458,0.367,0.825,0.826,1.19,1.283
			c0.185,0.184,0.46,0.367,0.644,0.643c0,0.184,0,0.367,0,0.641c0,0.367,0,0.828,0,1.285c0,0.826,0,1.652,0,2.477
			c0.184,0.365,0.459,0.824,0.642,1.283c0.186,0.367,0.459,0.824,0.644,1.285c0,0.367,0,0.824,0,1.191
			c-0.185,0.459-0.458,0.826-0.644,1.283c0,0.184,0,0.461,0,0.643c-0.183,0.184-0.458,0.459-0.642,0.643c0,0.185,0,0.459,0,0.644
			c-0.184,0.457-0.459,0.823-0.644,1.284c0,1.191,0,2.477,0,3.76c0,0.459,0,0.826,0,1.283c1.284,0,1.284,0,1.284-0.641
			c0.459-1.47,0.459-1.47,1.284-1.927c0.184,0.183,0.458,0.457,0.643,0.642c0,0.824,0,1.742,0,2.565c0,0.185,0,0.459,0,0.644
			c0,0.184,0,0.365,0,0.643c0,0.092,0,0.367,0,0.551c0,0.643,0,1.283,0,1.926c0,0.185,0,0.459,0,0.644c0,0.183,0,0.457,0,0.642
			c0.184,0.184,0.459,0.459,0.642,0.643c0.185,0.824,0.459,1.65,0.643,2.566c0,0.366,0,0.733,0,1.192c0.643,0,1.283,0,1.926,0
			c0.184,0,0.366,0,0.643,0c0.184-0.185,0.367-0.459,0.55-0.552c0-0.274,0-0.459,0-0.643c0-0.273,0-0.457,0-0.641
			c0-0.275,0-0.459,0-0.643c0-0.275,0-0.459,0-0.644c0.459,0,0.826,0,1.284,0c0-0.185,0-0.457,0-0.642c-0.184,0-0.458,0-0.642,0
			c-0.185-0.459-0.458-0.825-0.644-1.282c0.186-0.826,0.459-1.742,0.644-2.568c0.458,0,0.824,0,1.282,0c0-1.192,0-1.192-0.642-1.192
			c-0.184-0.185-0.458-0.459-0.642-0.644c0-0.457,0-0.823,0-1.28c-0.185-0.461-0.458-0.826-0.644-1.285c0-0.185,0-0.459,0-0.642
			c0.186,0,0.459,0,0.644,0c0-1.284,0-1.284-0.644-1.284c-0.183-0.183-0.366-0.365-0.55-0.55c0-0.276,0-0.459,0-0.644
			c0-0.275,0-0.459,0-0.643c0.184-0.457,0.367-0.824,0.55-1.283c0.186-0.459,0.459-0.824,0.644-1.285c0-0.457,0-0.824,0-1.283
			c0-0.184,0-0.367,0-0.551c0-0.273,0-0.457,0-0.641c0.458-0.277,0.824-0.462,1.282-0.646c0-0.272,0-0.457,0-0.641
			c-0.184-0.459-0.458-0.918-0.642-1.283c0-0.274,0-0.459,0-0.643c-0.184-0.182-0.458-0.459-0.642-0.643
			c0.184-0.641,0.458-1.283,0.642-1.832c0.184-0.459,0.458-0.918,0.642-1.285c0-1.283,0-2.568,0-3.852
			c-0.184-0.185-0.458-0.367-0.642-0.549c-0.184-0.918-0.458-1.744-0.642-2.568c0.184-0.457,0.458-0.916,0.642-1.283
			c0-0.275,0-0.459,0-0.643c0-0.273,0-0.457,0-0.642c-0.184-0.185-0.458-0.459-0.642-0.644c0-0.459,0-0.823,0-1.282
			c0.184-0.185,0.458-0.365,0.642-0.55c0.184-0.274,0.458-0.459,0.642-0.643c0.825-0.275,1.651-0.459,2.568-0.643
			c0.366,0,0.824,0,1.283,0c0.184-0.273,0.367-0.457,0.642-0.641c0.186,0,0.367,0,0.644,0c0.551-0.275,1.191-0.459,1.834-0.642
			c0.642-0.461,1.283-0.828,1.926-1.285c0.184-0.185,0.367-0.459,0.642-0.644c0.185-0.184,0.367-0.459,0.643-0.641
			c0.366-0.184,0.825-0.459,1.283-0.643c0.185,0,0.367,0,0.644,0C106.737,66.313,106.921,66.313,107.196,66.313z M86.839,97.4
			c0.366-0.459,0.642-0.919,1.008-1.286c0.092,0.367,0.185,0.827,0.275,1.286C87.663,97.4,87.297,97.4,86.839,97.4z M102.703,56.225
			c-0.275,0.184-0.459,0.459-0.644,0.643c-0.458,0.459-0.458,0.459,0,2.477c-0.273,0.184-0.458,0.459-0.642,0.641
			c0,0.459,0,0.826,0,1.285c-0.185,0.182-0.458,0.457-0.643,0.641c-0.458,0.184-0.824,0.459-1.191,0.643
			c-0.275,0.459-0.458,0.826-0.644,1.285c0,0.184,0,0.367,0,0.641c0,0.551,0,0.551-1.282,0.551c0-0.184,0-0.367,0-0.551
			c-1.283-0.365-1.283-0.365-1.927-1.283c-0.184-0.184-0.459-0.459-0.643-0.643c0-0.184,0-0.459,0-0.643c-0.183,0-0.458,0-0.642,0
			c0.184,1.102,0.459,2.111,0.642,3.12c-0.183,0-0.458,0-0.642,0c-0.185-0.185-0.458-0.367-0.643-0.552
			c-0.184-0.272-0.458-0.457-0.642-0.642c-0.185-0.274-0.458-0.459-0.644-0.643c-0.183-0.184-0.366-0.459-0.55-0.643
			c0-0.184,0-0.459,0-0.643c0-0.459,0-0.824,0-1.283c1.192,0,1.192,0,1.192,0.643c0.184,0.182,0.458,0.457,0.642,0.641
			c0.184,0,0.458,0,0.642,0c0-0.184,0-0.459,0-0.641c0-0.184,0-0.459,0-0.643c-0.184-0.184-0.458-0.459-0.642-0.643
			c-0.184,0-0.458,0-0.642,0c0.184-0.824,0.458-1.65,0.642-2.475c-0.458,0-0.825,0-1.284,0c-0.183,0.365-0.366,0.824-0.55,1.191
			c-0.275-0.643-0.459-1.283-0.643-1.834c0-0.184,0-0.459,0-0.643c0.184-0.457,0.366-0.824,0.643-1.283c0-0.184,0-0.459,0-0.643
			c0-0.182,0-0.457,0-0.641c0-0.185,0-0.458,0-0.642s0-0.459,0-0.642c0-0.367,0-0.826,0-1.191c-0.643,0-0.643,0-0.643-1.286
			c0.184,0,0.366,0,0.643,0c0.184-0.274,0.367-0.458,0.55-0.642c0.459-0.184,0.826-0.459,1.284-0.643
			c0.184-0.183,0.458-0.458,0.642-0.642c0-0.184,0-0.458,0-0.642c1.102,0,2.109,0,3.211,0c0,0.184,0,0.458,0,0.642
			c0.183,0,0.366,0,0.642,0c0.642,0.184,1.284,0.459,1.835,0.642c0,0.643,1.283,0.643,1.283,1.284c0,0.184,0,0.367,0,0.643
			c0,0.184,0,0.367,0,0.644c0.184,0.182,0.367,0.365,0.642,0.641c0,0.184,0,0.367,0,0.551c0.185,0.825,0.367,1.742,0.644,2.566
			C102.703,55.401,102.703,55.768,102.703,56.225z M105.912,63.838c-0.185,0-0.458,0-0.644,0c0-0.459,0-0.826,0-1.285
			c0.186,0,0.367,0,0.644,0C105.912,63.012,105.912,63.379,105.912,63.838z"/>
		<path fill="#CA0505" d="M78.035,51.184c0-0.276,0-0.46,0-0.644c0.184-0.459,0.366-0.917,0.642-1.284
			c-0.274-0.184-0.458-0.459-0.642-0.643c0-0.183,0-0.458,0-0.642c0-0.184,0-0.458,0-0.642c0-0.366,0-0.825,0-1.192
			c-0.275-0.459-0.459-0.917-0.643-1.284c0-0.274,0-0.458,0-0.642c-0.274-0.274-0.458-0.458-0.642-0.642c-0.459,0-0.826,0-1.284,0
			c-0.184,0-0.459,0-0.643,0c-0.184-0.275-0.458-0.458-0.643-0.643c-0.184,0-0.458,0-0.642,0c-0.366,0.185-0.825,0.367-1.192,0.643
			c-0.273,0.184-0.458,0.367-0.642,0.642c-0.275,0-0.459,0-0.644,0c-0.273,0.184-0.458,0.367-0.641,0.642c0,0.367,0,0.825,0,1.284
			c-0.275,0.184-0.459,0.367-0.644,0.551c-0.274,0.184-0.458,0.458-0.642,0.642c-0.275,0.184-0.459,0.458-0.643,0.642
			c0,0.184,0,0.459,0,0.642c0,0.184,0,0.459,0,0.643c0,0.184,0,0.367,0,0.642c0.184,0.184,0.366,0.367,0.643,0.643
			c0,0.184,0,0.367,0,0.644c0.184,0.182,0.366,0.365,0.642,0.641c0,0.184,0,0.367,0,0.551c0.185,0.183,0.367,0.458,0.644,0.642
			c0.183,0.184,0.366,0.457,0.641,0.642c0,1.467,0,2.934,0,4.4c-0.273-0.184-0.458-0.365-0.641-0.549c0-0.459,0-0.826,0-1.285
			c0-0.182,0-0.457,0-0.641c-0.644,0-1.284,0-1.927,0c0,0.824,0,1.65,0,2.475c0.184,0,0.366,0,0.643,0
			c0.185,0.459,0.366,0.826,0.643,1.285c0.184,0.459,0.366,0.824,0.643,1.283c0,0.459,0,0.824,0,1.283
			c-0.275,1.285-0.459,2.568-0.643,3.759c-0.275,0-0.458,0-0.643,0c-0.275,0.185-0.459,0.459-0.643,0.644c0,0.185,0,0.459,0,0.644
			c0.184,0.182,0.366,0.457,0.643,0.641c0,0.184,0,0.459,0,0.643c0.185,0.184,0.366,0.457,0.643,0.641
			c0.184,0.185,0.366,0.367,0.643,0.646c0,0.365,0,0.824,0,1.281c-0.275,0-0.459,0-0.643,0c0,1.284,0,1.284,0.643,1.284
			c0.183,1.009,0.366,2.017,0.641,3.115c0.185,0.367,0.367,0.826,0.644,1.285c0,0.824,0,1.648,0,2.566c-0.275,0-0.459,0-0.644,0
			c0,0.551,0,1.191,0,1.834c0.185,0,0.367,0,0.644,0c0,0.824,0,1.65,0,2.566c0.367,0.184,0.825,0.367,1.284,0.643
			c0,0.367,0,0.826,0,1.285c-0.275,0-0.459,0-0.644,0c0,1.191,0,1.191,0.644,1.191c0,0.184,0,0.457,0,0.641
			c-0.275,0-0.459,0-0.644,0c0,0.643,0,1.285,0,1.928c0.185,0,0.367,0,0.644,0c0,0.182,0,0.365,0,0.641
			c0.184,0.185,0.365,0.367,0.55,0.642c0.458,1.651,0.825,3.396,1.283,5.047c0.184,2.11,0.459,4.218,0.643,6.327
			c0.458,0.184,0.825,0.457,1.284,0.641c0.184-0.184,0.366-0.457,0.642-0.641c0-0.457,0-0.824,0-1.283c0-0.184,0-0.459,0-0.643
			c0-0.185,0-0.459,0-0.642c0.184,0,0.366,0,0.643,0c0-0.644,0-1.284,0-1.834c-0.275,0-0.459,0-0.643,0c0-0.276,0-0.459,0-0.644
			c0.184-0.275,0.366-0.459,0.643-0.643c0-0.185,0-0.457,0-0.642c0-0.459,0-0.826,0-1.285c0.184,0,0.366,0,0.642,0
			c0-3.853,0-7.61,0-11.371c-0.274,0-0.458,0-0.642,0c-0.275-0.644-0.459-1.284-0.643-1.926c0.184,0,0.366,0,0.643,0
			c0-1.19,0-1.19-0.643-1.19c0-0.459,0-0.918,0-1.285c0-0.459,0-0.916,0-1.283c0-0.273,0-0.457,0-0.641c0-1.103,0-2.109,0-3.209
			c0-2.293,0-4.586,0-6.97c0.184-0.459,0.366-0.825,0.643-1.282c0-0.185,0-0.367,0-0.552c0-0.272,0-0.457,0-0.642
			c-0.275-0.918-0.459-1.743-0.643-2.567c0-0.459,0-0.826,0-1.285c0-0.457,0-0.824,0-1.283c0.184-0.367,0.366-0.826,0.643-1.191
			c0.184-0.826,0.366-1.742,0.642-2.568c0.184-0.184,0.367-0.459,0.551-0.643c0-0.182,0-0.457,0-0.641c-0.184,0-0.367,0-0.551,0
			C78.402,52.833,78.219,52.008,78.035,51.184z"/>
		<path fill="#CA0505" d="M40.622,72.09c-0.185,0-0.459,0-0.643,0c0,0.184,0,0.457,0,0.549c0.274,0,0.458,0,0.643,0
			C40.622,72.456,40.622,72.274,40.622,72.09z"/>
		<path fill="#CA0505" d="M66.665,16.978c-0.459,0.184-0.918,0.458-1.284,0.642c-0.275-0.184-0.459-0.458-0.644-0.642
			c0-0.184,0-0.459,0-0.643c0-0.458,0-0.825,0-1.283c0-0.184,0-0.458,0-0.642c0.185-0.184,0.367-0.459,0.644-0.643
			c0-0.184,0-0.458,0-0.642c0.184-0.184,0.366-0.459,0.642-0.643c0-0.183,0-0.366,0-0.55c-0.274-0.458-0.458-0.917-0.642-1.283
			c-0.275,0-0.459,0-0.644,0c-0.273,0.366-0.458,0.825-0.642,1.283c-0.273,0.184-0.458,0.367-0.642,0.55
			c-0.275,0.184-0.458,0.459-0.643,0.643c-0.274,0.184-0.459,0.458-0.643,0.642c-0.274,0-0.459,0-0.643,0c-0.459,0-0.824,0-1.19,0
			c-0.275-0.184-0.459-0.458-0.644-0.642c-0.274-0.184-0.458-0.459-0.642-0.643c-0.275,0-0.459,0-0.643,0
			c-0.917,0.184-1.742,0.459-2.567,0.643c0,0.184,0,0.458,0,0.642c-0.184,0.184-0.459,0.459-0.643,0.643c0,0.184,0,0.458,0,0.642
			c-0.184,0.183-0.458,0.458-0.643,0.642c-0.183,0.642-0.458,1.284-0.642,1.926c0,0.184,0,0.367,0,0.55c0,0.184,0,0.459,0,0.642
			c0.184,0.184,0.459,0.459,0.642,0.643c0,0.184,0,0.458,0,0.642s0,0.459,0,0.643c-0.183,0.184-0.458,0.458-0.642,0.642
			c-0.184,0.184-0.458,0.458-0.643,0.642c-0.184,0-0.366,0-0.55,0c0,0.184,0,0.459,0,0.642c0,0.184,0,0.459,0,0.643
			c0,0.458,0,0.825,0,1.284c0,0.366,0,0.824,0,1.191c0.184,0.184,0.366,0.459,0.55,0.642c0,0.184,0,0.459,0,0.643
			c0.185,0.459,0.459,0.825,0.643,1.283c0,0.459,0,0.825,0,1.284c-0.184,0.184-0.458,0.367-0.643,0.643
			c0.185,0.642,0.459,1.283,0.643,1.925c-0.184,0-0.458,0-0.643,0c0,1.009,0,2.018,0,3.118c0.185,0,0.459,0,0.643,0
			c0,0.642,0,1.283,0,1.926c0.459,1.009,0.825,2.109,1.283,3.21c0,0.824,0,1.558,0,2.475c-0.184,0.185-0.458,0.367-0.643,0.643
			c0,0.642,0,1.283,0,1.926c-0.183,0-0.458,0-0.642,0c0,1.192,0,1.192,0.642,1.192c0.185,0.184,0.459,0.458,0.643,0.642
			s0.459,0.458,0.643,0.642c0,0.184,0,0.459,0,0.642c-0.184,0.459-0.459,0.826-0.643,1.284c-0.824,0-1.741,0-2.476,0
			c0,0.643,0,0.643,1.833,1.286c0.185,0.182,0.459,0.365,0.643,0.641c0.184,0.184,0.459,0.367,0.643,0.551c0,0.183,0,0.458,0,0.642
			c-0.184,0.184-0.459,0.457-0.643,0.642c0,0.184,0,0.459,0,0.641c-0.184,0-0.458,0-0.643,0c0,0.643,0,1.285,0,1.926
			c0.185,0,0.459,0,0.643,0c0,0.184,0,0.459,0,0.643c-0.184,0-0.458,0-0.643,0c0,1.191,0,1.191,0.643,1.191c0,0.826,0,1.744,0,2.568
			c0.184,0.184,0.459,0.459,0.643,0.643c0,0.641,1.284,0.641,1.284,1.283c0.184,0.459,0.366,0.826,0.642,1.285
			c0,1.375,0,2.934,0,4.4c0,0.184,0,0.457,0,0.641c-0.274,0.459-0.458,0.826-0.642,1.285c0,0.184,0,0.367,0,0.641
			c0,0.184,0,0.367,0,0.643c0,1.65,0,3.301,0,5.043c0.184,0.185,0.366,0.367,0.642,0.642c0,0.185,0,0.366,0,0.642
			c0.185,1.192,0.367,2.477,0.643,3.76c0.184,0.367,0.366,0.826,0.643,1.285c0.184,0.184,0.366,0.366,0.642,0.641
			c0,0.184,0,0.367,0,0.643c0,0.184,0,0.367,0,0.641c0,1.01,0,2.111,0,3.119c0.185,0.184,0.367,0.367,0.644,0.644
			c0.183,0.364,0.366,0.823,0.642,1.282c0,0.185,0,0.367,0,0.642c-0.274,0.366-0.459,0.828-0.642,1.285c0,0.185,0,0.366,0,0.551
			c0.183,0.185,0.366,0.459,0.642,0.644c0,0.184,0,0.459,0,0.641c0.091,0.184,0.366,0.461,0.55,0.643
			c0.184,0.184,0.367,0.459,0.643,0.643c0,0.185,0,0.459,0,0.644c0.184,0.185,0.367,0.457,0.643,0.642c0,0.367,0,0.826,0,1.285
			c0.185,0.185,0.366,0.367,0.643,0.549c0.274,0.459,0.642,0.826,0.917,1.285c0.092-0.459,0.184-0.826,0.365-1.285
			c0-0.182,0-0.364,0-0.549c0.185-0.459,0.367-0.918,0.644-1.285c0-0.185,0-0.457,0-0.642c0.184-0.185,0.366-0.459,0.642-0.644
			c0-0.184,0-0.459,0-0.643c-0.274-0.459-0.458-0.824-0.642-1.283c0-1.01,0-2.11,0-3.119c-0.275-0.274-0.459-0.459-0.644-0.641
			c0-0.277,0-0.459,0-0.643c0-5.318,0-10.547,0-15.863c0.185,0,0.367,0,0.644,0c0.184,0.184,0.366,0.459,0.642,0.643
			c0.093,0.365,0.093,0.365,0.644-0.643c-0.275-0.365-0.459-0.824-0.644-1.191c0-0.459,0-0.916,0-1.283c0-0.459,0-0.825,0-1.284
			c0-0.185,0-0.457,0-0.642c0.185-0.184,0.367-0.459,0.644-0.643c-0.275-0.184-0.459-0.459-0.644-0.641
			c-0.274-0.184-0.458-0.459-0.642-0.643c0-0.185,0-0.459,0-0.644c-0.275-0.457-0.459-0.824-0.644-1.19
			c-0.273-1.283-0.458-2.569-0.642-3.853c0-0.184,0-0.459,0-0.643c0.184-0.182,0.367-0.457,0.642-0.641
			c0.185-0.459,0.367-0.826,0.644-1.285c0.184-0.824,0.366-1.65,0.642-2.475c0-0.184,0-0.459,0-0.643
			c-0.274-0.184-0.458-0.459-0.642-0.643c0-0.182,0-0.457,0-0.641c-0.459-2.751-0.917-5.411-1.284-8.162
			c-0.273-0.275-0.458-0.459-0.642-0.643c0.184-1.1,0.367-2.2,0.642-3.209c0-0.184,0-0.458,0-0.642c0-0.184,0-0.367,0-0.55
			c0.185-0.275,0.367-0.459,0.643-0.643c0.366,0,0.825,0,1.283,0c0.185,0,0.367,0,0.644,0c0-1.284,0-1.284-0.644-1.284
			c0-1.1,0-2.2,0-3.209c0-0.275,0-0.459,0-0.642c0-0.184,0-0.459,0-0.642c0-0.367,0-0.826,0-1.193
			c0.185-0.274,0.367-0.458,0.644-0.642c0-0.275,0-0.458,0-0.642c0-0.275,0-0.458,0-0.642c-0.275,0-0.459,0-0.644,0
			c-0.274,0.184-0.458,0.366-0.642,0.642c-0.275,0-0.459,0-0.644,0c0-0.275,0-0.458,0-0.642c-0.273-0.275-0.458-0.459-0.642-0.642
			c0-0.275,0-0.459,0-0.643c-0.273-0.275-0.458-0.459-0.642-0.643c0-0.458,0-0.824,0-1.283c0.184-0.183,0.366-0.458,0.642-0.642
			c0-0.184,0-0.459,0-0.643c0.184-1.009,0.367-2.017,0.642-3.117c0-0.184,0-0.459,0-0.643c0-0.183,0-0.458,0-0.642s0-0.458,0-0.642
			c0-0.184,0-0.458,0-0.642c0.185-0.184,0.367-0.459,0.644-0.643c0-0.184,0-0.458,0-0.642c0.184-0.184,0.366-0.459,0.642-0.643
			c0.185-0.183,0.367-0.458,0.644-0.642c0.183-0.183,0.366-0.366,0.642-0.55c0.55,0,0.55,0,0.55-1.284
			C66.665,16.335,66.665,16.335,66.665,16.978z M54.56,22.663c-0.183-0.183-0.458-0.458-0.642-0.642c0.184,0,0.459,0,0.642,0
			C54.56,22.205,54.56,22.48,54.56,22.663z M57.128,59.985c-0.275,0-0.459,0-0.643,0c-0.643,0-0.643,0-0.643-1.283
			c1.284,0,1.284,0,1.284,0.643C57.128,59.528,57.128,59.803,57.128,59.985z M57.128,36.601c-0.185,0-0.459,0-0.643,0
			c0-0.183,0-0.458,0-0.642c0.184,0,0.366,0,0.643,0C57.128,36.143,57.128,36.327,57.128,36.601z M62.813,54.942
			c-0.184,0-0.459,0-0.643,0c0-0.184,0-0.367,0-0.643c0.184,0,0.367,0,0.643,0C62.813,54.483,62.813,54.758,62.813,54.942z
			 M63.455,49.898c-0.275,0-0.458,0-0.643,0c-0.274,0-0.459,0-0.643,0c0-0.642,0-1.284,0-1.926c0.184,0,0.367,0,0.643,0
			c0.185,0,0.366,0,0.643,0C63.455,48.614,63.455,49.256,63.455,49.898z M64.738,34.676c0,0.642,0,1.283,0,1.925
			c0,0.643,0,0.643-1.282,0.643c0-0.275,0-0.458,0-0.643c0-0.274,0-0.458,0-0.642c0-0.275,0-0.459,0-0.642
			C63.455,34.676,63.455,34.676,64.738,34.676z"/>
		<path fill="#CA0505" d="M171.02,54.942c-0.184,0-0.459,0-0.643,0c0,0.459,0,0.918,0,1.283c0.274,0,0.459,0,0.643,0
			C171.02,55.768,171.02,55.401,171.02,54.942z"/>
		<path fill="#CA0505" d="M243.921,30.275c-0.273,0-0.457,0-0.641,0c-0.277,0-0.462,0-0.644,0c-1.742,0-3.395,0-5.043,0
			c-2.568,0-5.137,0-7.613,0c0-0.275,0-0.459,0-0.643c0.644,0,0.644,0,0.644-1.284c-0.644,0-1.283,0-1.926,0
			c0,0.184,0,0.459,0,0.642c0,0.184,0,0.367,0,0.643c-0.275,0.184-0.457,0.367-0.642,0.643c-3.211,0-6.328,0-9.537,0
			c-0.459,0-0.826,0-1.283,0c-0.825-0.275-1.651-0.459-2.477-0.643c-0.826,0-1.742,0-2.568,0c-0.184,0-0.457,0-0.641,0
			c-0.459,0.184-0.826,0.367-1.283,0.643c0-0.275,0-0.459,0-0.643c-1.01,0-2.02,0-3.119,0c0,0.184,0,0.367,0,0.643
			c-0.184,0-0.459,0-0.641,0c-0.459,0-0.826,0-1.285,0c-0.184,0-0.457,0-0.641,0c-0.185,0-0.367,0-0.552,0c0-0.275,0-0.459,0-0.643
			c-1.282,0-1.282,0-1.282,0.643c-0.459,0-0.918,0-1.285,0c-0.457-0.275-0.824-0.459-1.283-0.643c-0.184,0-0.459,0-0.643,0
			c-0.185,0-0.459,0-0.642,0c-0.643,0-1.285,0-1.834,0c-0.643,0-1.285,0-1.927,0c-0.276-0.275-0.458-0.459-0.642-0.643
			c-0.276-0.183-0.46-0.458-0.645-0.642c-0.273,0-0.458,0-0.642,0s-0.366,0-0.551,0c-0.273,0.184-0.457,0.459-0.642,0.642
			c0,0.459,0,0.826,0,1.285c-0.273-0.275-0.458-0.459-0.642-0.643c0-0.459,0-0.825,0-1.284c-0.643,0-1.284,0-1.927,0
			c0,0.459,0,0.825,0,1.284c-0.642,0-1.282,0-1.927,0c-0.273,0-0.458,0-0.642,0s-0.458,0-0.643,0c0-0.275,0-0.459,0-0.643
			c-1.19,0-1.19,0-1.19,0.643c-0.276,0-0.458,0-0.643,0c-0.918,0-1.742,0-2.566,0c-0.276-0.459-0.46-0.825-0.645-1.284
			c-0.184,0-0.458,0-0.642,0c-0.458,0-0.825,0-1.283,0c-0.184,0-0.459,0-0.643,0c0,0.184,0,0.459,0,0.642c0,0.184,0,0.367,0,0.643
			c-0.458,0-0.825,0-1.192,0c-0.273-0.275-0.458-0.459-0.642-0.643c-0.458,0-0.824,0-1.283,0c0,0.459,0,0.826,0,1.285
			c-0.459,0.183-0.826,0.366-1.284,0.642c0,0.184,0,0.366,0,0.642c0,0.184,0,0.366,0,0.642c-0.184,0.184-0.458,0.367-0.642,0.642
			c-0.459,0-0.825,0-1.284,0c-0.185,0-0.458,0-0.643,0c0,1.193,0,1.193,0.643,1.193c0.459,0.183,0.825,0.458,1.284,0.642
			c0.184,0.183,0.458,0.366,0.642,0.642c0,0.183,0,0.366,0,0.642c0.458,0.184,0.825,0.367,1.284,0.642c0.183,0,0.366,0,0.642,0
			c0,0.185,0,0.367,0,0.643c0.643,0,1.283,0,1.834,0c0-0.275,0-0.458,0-0.643c0.643,0,1.284,0,1.927,0c0.458,0,0.824,0,1.282,0
			c0.46,0,0.826,0,1.285,0c0.184,0,0.366,0,0.643,0c0.183,0,0.365,0,0.641,0c0.184,0,0.367,0,0.644,0c0.185,0,0.365,0,0.643,0
			c0.642,0,1.19,0,1.833,0c0.642,0.185,1.285,0.367,1.927,0.643c0,0.184,0,0.367,0,0.642c1.283,0,1.283,0,1.283-0.642
			c0.184-0.458,0.366-0.917,0.643-1.284c1.192,0,2.476,0,3.761,0c0.184,0.184,0.364,0.367,0.642,0.642c0.366,0,0.825,0,1.284,0
			c0.184,0.185,0.365,0.367,0.643,0.643c0,0.184,0,0.367,0,0.642c0,0.184,0,0.367,0,0.642c0,0.184,0,0.367,0,0.642
			c1.283,0,1.283,0,1.283-0.642c0.184-0.274,0.367-0.458,0.551-0.642c0.642,0,1.283,0,1.926,0c0.185-0.274,0.457-0.458,0.642-0.642
			c0.184-0.458,0.367-0.917,0.643-1.284c0.185,0,0.367,0,0.644,0c0.182,0.184,0.364,0.367,0.641,0.642
			c0.367,0.185,0.826,0.367,1.193,0.643c0,0.184,0,0.367,0,0.642c0.184,0.184,0.457,0.367,0.641,0.642c0,0.642,0,1.284,0,1.927
			c-0.184,0-0.457,0-0.641,0c-0.367,0.183-0.826,0.366-1.193,0.55c-0.641,0.184-1.283,0.458-1.926,0.642c0,0.184,0,0.366,0,0.642
			c0,0.367,0,0.826,0,1.284c0,0.184,0,0.367,0,0.642c0.367,0.184,0.826,0.367,1.285,0.642c0.182,0,0.364,0,0.641,0
			c0.185,0.184,0.367,0.367,0.644,0.643c0,0.183,0,0.367,0,0.642c0,0.826,0,1.65,0,2.476c-0.459,0-0.918,0-1.283,0
			c0,1.192,0,2.478,0,3.762c0.182,0,0.365,0,0.641,0c0.185,0.183,0.367,0.458,0.644,0.642c0.184,0.457,0.366,0.825,0.551,1.282
			c0.184,0.184,0.457,0.459,0.641,0.643c0,4.678,0,9.354,0,13.938c0,0.185,0,0.366,0,0.646c0,0.182,0,0.364,0,0.641
			c0.185,0,0.459,0,0.644,0c0.184-0.275,0.459-0.459,0.643-0.641c0-0.461,0-0.828,0-1.285c0-0.185,0-0.459,0-0.644
			c0.182,0,0.457,0,0.641,0c0.185,1.283,0.459,2.567,0.644,3.853c0,1.19,0,2.475,0,3.758c-0.185,0-0.459,0-0.644,0
			c0,1.01,0,2.109,0,3.209c0.185,0,0.459,0,0.644,0c0,0.184,0,0.367,0,0.643c-0.185,0.367-0.459,0.824-0.644,1.191
			c0,0.184,0,0.367,0,0.643c0,0.184,0,0.367,0,0.641c0,0.185,0,0.367,0,0.644c0,0.185,0,0.366,0,0.644c0,0.184,0,0.366,0,0.641
			c0,0.643,0,1.283,0,1.928c-0.184,0.365-0.459,0.824-0.641,1.191c-0.459,0.184-0.826,0.457-1.285,0.641c0,0.826,0,1.65,0,2.568
			c0,0.641,0,1.285,0,1.926c1.285,0,1.285,0,1.285,0.551c0,0.184,0,0.459,0,0.643c0.182,0.459,0.457,0.824,0.641,1.283
			c0,0.459,0,0.826,0,1.285c0.185,0.184,0.459,0.457,0.644,0.641c0,0.367,0,0.828,0,1.287c-0.185,0.184-0.459,0.367-0.644,0.549
			c0,0.184,0,0.459,0,0.643c0.185,0.184,0.459,0.459,0.644,0.643c0,0.457,0,0.824,0,1.283c-0.185,0-0.459,0-0.644,0
			c0,1.283,0,1.283,0.644,1.283c0,0.457,0,0.824,0,1.283s0,0.826,0,1.193c0,0.182,0,0.459,0,0.643c1.283,0,1.283,0,1.283-0.643
			c0-0.367,0-0.734,0-1.193c0.184,0,0.366,0,0.643,0c0,0.184,0,0.365,0,0.643c0,0.092,0,0.367,0,0.551c0,0.826,0,1.742,0,2.568
			c0.185,0,0.367,0,0.551,0c0.367-0.826,0.642-1.742,1.009-2.568c0.274,0.459,0.643,0.826,0.916,1.283
			c0.184,0.459,0.459,0.826,0.643,1.285c0.184,0.182,0.459,0.457,0.643,0.641c0,0.185,0,0.459,0,0.644s0,0.457,0,0.642
			c0,1.284,0,2.567,0,3.76c0.185,0.184,0.457,0.459,0.642,0.643c0.184,0,0.459,0,0.643,0c0.185,0,0.457,0,0.644,0
			c0-0.826,0-1.742,0-2.477c-0.187,0-0.459,0-0.644,0c0-0.273,0-0.457,0-0.642c0.185-0.459,0.457-0.825,0.644-1.284
			c0.182-0.642,0.364-1.283,0.641-1.925c0-0.825,0-1.741,0-2.567c-0.275-0.185-0.459-0.459-0.641-0.551c0-0.277,0-0.459,0-0.644
			c0.182-0.459,0.364-0.826,0.641-1.283c0-0.642,0-1.282,0-1.926c-0.275-0.459-0.459-0.824-0.641-1.283c0-0.185,0-0.459,0-0.644
			c0-0.182,0-0.364,0-0.549c0.182-0.277,0.364-0.459,0.641-0.643c-0.275-0.275-0.459-0.46-0.641-0.645
			c-0.187-0.184-0.459-0.457-0.644-0.641c0-0.184,0-0.459,0-0.643c0.185,0,0.457,0,0.644,0c0-0.824,0-1.742,0-2.568
			c-0.187,0-0.459,0-0.644,0c0-0.824,0-1.652,0-2.477c0-0.275,0-0.459,0-0.641c0-2.293,0-4.679,0-6.972c0-0.644,0-1.283,0-1.927
			c0-1.834,0-1.834,0.644-2.477c-0.187-0.641-0.459-1.281-0.644-1.924c0-0.275,0-0.459,0-0.643c0.185-0.273,0.457-0.457,0.644-0.641
			c0-0.185,0-0.459,0-0.644c0.182-0.642,0.364-1.283,0.641-1.832c0.184-0.274,0.367-0.459,0.643-0.644c0,0.644,0,0.644,1.191,0.644
			c0-0.459,0-0.918,0-1.285c0-0.272,0-0.457,0-0.642c0-0.274,0-0.459,0-0.641c0-0.277,0-0.461,0-0.645
			c-0.184-0.457-0.457-0.824-0.641-1.283c0-0.184,0-0.459,0-0.641c0-0.184,0-0.459,0-0.644c-0.185,0-0.367,0-0.552,0
			c-0.274-0.459-0.459-0.825-0.643-1.282c-0.459-0.824-0.826-1.65-1.283-2.478c0-1.926,0-3.852,0-5.686c0-0.643,0-1.283,0-1.926
			c0-0.184,0-0.459,0-0.643c-0.184-0.182-0.459-0.457-0.643-0.641c0-0.185,0-0.458,0-0.642c0-1.009,0-2.109,0-3.119
			c0.184-0.274,0.459-0.458,0.643-0.642c0.185,0.184,0.457,0.367,0.644,0.642c0,0.643,0,0.643,1.282,0.643
			c0-1.284,0-1.284-0.643-1.284c-0.275-0.459-0.459-0.825-0.641-1.284c-0.187-0.184-0.459-0.458-0.644-0.642
			c0-0.366,0-0.825,0-1.192c-0.184-0.274-0.459-0.459-0.643-0.642c0.184-0.459,0.459-0.917,0.643-1.284c0-0.274,0-0.458,0-0.642
			c0-0.458,0-0.917,0-1.284c0-0.458,0-0.825,0-1.283c0-0.367,0-0.825,0-1.192c-0.184-0.275-0.459-0.458-0.643-0.643
			c0.184-0.642,0.459-1.283,0.643-1.925c0.185,0,0.457,0,0.644,0c0.457,0.184,0.823,0.367,1.282,0.642c0,0.184,0,0.367,0,0.642
			c0.552,0,1.191,0,1.834,0c0-0.274,0-0.458,0-0.642c0.459-0.274,0.824-0.458,1.283-0.642c0.185,0,0.459,0,0.644,0
			c0.184,0.184,0.457,0.367,0.641,0.642c0.184,0.184,0.367,0.367,0.643,0.642c0.185,0,0.367,0,0.644,0c0.184,0,0.367,0,0.641,0
			c0.185-0.274,0.367-0.458,0.644-0.642c0.367-0.274,0.826-0.458,1.19-0.642c0.826-0.275,1.652-0.458,2.568-0.643
			c0.184,0,0.367,0,0.643,0c0.185,0.367,0.365,0.826,0.642,1.284c0.643,0,0.643,0,0.643-1.284c0.367,0,0.824,0,1.283,0
			c0.643,0,1.285,0,1.834,0c0.826,0.185,1.65,0.367,2.568,0.643c0.366,0.184,0.823,0.367,1.282,0.642
			c0.185,0.184,0.367,0.367,0.644,0.642c0.184,0,0.367,0,0.643,0c0-0.274,0-0.458,0-0.642c0.185-0.642,0.367-1.284,0.642-1.926
			c0.184,0,0.367,0,0.551,0s0.457,0,0.641,0c1.011-0.275,2.111-0.459,3.211-0.642c0,0.183,0,0.366,0,0.642c0.55,0,1.191,0,1.834,0
			c0-0.642,0-1.283,0-1.925c0-0.367,0-0.826,0-1.193c0-0.274,0-0.458,0-0.642c0.185,0,0.459,0,0.644,0c0-0.642,0-1.283,0-1.925
			C244.747,30.275,244.288,30.275,243.921,30.275z M205.866,44.212c-0.185,0-0.367,0-0.644,0c0-0.184,0-0.458,0-0.642
			c0.185,0,0.459,0,0.644,0C205.866,43.754,205.866,43.938,205.866,44.212z M206.509,63.838c0-0.185,0-0.367,0-0.644
			c0.457,0,0.824,0,1.283,0c0,0.185,0,0.367,0,0.644C207.425,63.838,206.966,63.838,206.509,63.838z M208.433,87.86
			c-0.367,0-0.824,0-1.283,0c0-0.182,0-0.365,0-0.643c0.459,0,0.826,0,1.283,0C208.433,87.401,208.433,87.678,208.433,87.86z
			 M214.118,91.071c-0.367,0-0.824,0-1.283,0c0-0.184,0-0.461,0-0.645c0.459,0,0.826,0,1.283,0
			C214.118,90.61,214.118,90.793,214.118,91.071z M214.761,69.524c0.184,0,0.457,0,0.643,0c0,0.641,0,1.281,0,1.924
			c-0.186,0-0.366,0-0.643,0C214.761,70.805,214.761,70.165,214.761,69.524z M214.761,72.639c0,0.184,0,0.459,0,0.643
			c-0.184,0-0.365,0-0.643,0c0-0.184,0-0.367,0-0.643C214.302,72.639,214.577,72.639,214.761,72.639z M219.804,33.484
			c-0.367,0-0.824,0-1.283,0c0-0.184,0-0.458,0-0.643c0.459,0,0.824,0,1.283,0C219.804,33.026,219.804,33.208,219.804,33.484z
			 M235.669,33.484c-0.644,0-1.283,0-1.928,0c0-0.184,0-0.458,0-0.643c0.645,0,1.284,0,1.928,0
			C235.669,33.026,235.669,33.208,235.669,33.484z M240.712,32.841c0-0.274,0-0.458,0-0.642c1.283,0,1.283,0,1.283,0.642
			C241.538,32.841,241.079,32.841,240.712,32.841z"/>
		<path fill="#CA0505" d="M171.02,66.313c-0.184-0.184-0.459-0.459-0.643-0.643c-0.184-0.185-0.366-0.457-0.55-0.642
			c-0.185,0-0.459,0-0.643,0c0-0.823,0-1.649,0-2.478c0.184,0,0.458,0,0.643,0c0,0.644,0,1.285,0,1.927c0.274,0,0.55,0,0.918,0
			c0.091,0.092,0.182,0.185,0.273,0.274c0.091-0.092,0.185-0.184,0.367-0.274c-0.184-0.185-0.276-0.272-0.367-0.364
			c-0.184-0.552-0.459-1.011-0.643-1.563c0-0.184,0-0.458,0-0.642c0-0.184,0-0.459,0-0.641c0-0.184,0-0.459,0-0.643
			c-0.184-0.459-0.366-0.824-0.55-1.283c-0.185-0.184-0.459-0.459-0.643-0.643c0-0.184,0-0.459,0-0.643c0-0.365,0-0.824,0-1.191
			c0-0.643,0-1.283,0-1.926c-0.459,0-0.826,0-1.284,0c0-0.643,0-1.283,0-1.925c-0.184-0.184-0.458-0.459-0.642-0.642
			c0-0.184,0-0.367,0-0.551c-0.184-0.275-0.459-0.459-0.643-0.641c-0.184-0.276-0.458-0.46-0.643-0.644
			c-0.184-0.275-0.458-0.459-0.642-0.643c0-0.274,0-0.458,0-0.642s0-0.459,0-0.643c-0.185,0-0.458,0-0.643,0
			c0-0.183,0-0.458,0-0.642c0.185-0.184,0.458-0.458,0.643-0.642c0.184,0,0.458,0,0.642,0c0-0.184,0-0.458,0-0.642
			c-0.184,0-0.458,0-0.642,0c-0.185,0.184-0.458,0.458-0.643,0.642c-0.366,0-0.824,0-1.191,0c-0.275-0.184-0.459-0.458-0.644-0.642
			c0-0.643,0-1.284,0-1.835c0.644,0,0.644,0,0.644-1.283c-0.55,0-1.102,0-1.56,0c-0.184-0.184-0.273-0.275-0.367-0.366
			c-0.184-0.092-0.458-0.185-0.642-0.276c-0.459,0-0.825,0-1.284,0c-0.184,0.185-0.458,0.367-0.642,0.643c-0.185,0-0.367,0-0.551,0
			c-0.274,0.184-0.458,0.367-0.643,0.642c-0.273,0.184-0.458,0.367-0.642,0.642c-0.275,0.184-0.459,0.367-0.644,0.643
			c-0.273,0-0.458,0-0.642,0c-0.274,0.183-0.458,0.367-0.642,0.642c-0.276,0.184-0.458,0.367-0.643,0.551
			c-0.643,0.184-1.284,0.458-1.835,0.642c-0.642,0.458-1.283,0.825-1.925,1.283c-0.275,0.184-0.459,0.459-0.644,0.643
			c-0.273,0.184-0.458,0.367-0.642,0.642c-0.274,0.184-0.458,0.367-0.642,0.643c0,0.184,0,0.367,0,0.644
			c-0.276,0.182-0.458,0.365-0.643,0.641c-0.46,0.367-0.826,0.825-1.284,1.192c-0.551,0-0.551-1.192-1.191-1.192
			c-0.274-0.275-0.458-0.459-0.643-0.641c0-0.276,0-0.46,0-0.644c0.185-0.459,0.367-0.917,0.643-1.284c0-0.184,0-0.459,0-0.643
			c0-0.642,0-1.283,0-1.925c0.184-0.184,0.367-0.367,0.642-0.551c0.367,0,0.733,0,1.192,0c0-1.284,0-1.284-0.643-1.284
			c0-0.274,0-0.458,0-0.642c0.643-0.274,1.284-0.458,1.927-0.642c0-0.458,0-0.917,0-1.284c-0.918,0.367-1.743,0.826-2.478,1.284
			c0,0.184,0,0.367,0,0.642c-0.273,0.184-0.458,0.367-0.642,0.642c-0.274,0-0.458,0-0.643,0c-0.458-0.274-0.918-0.458-1.283-0.642
			c-0.275-0.274-0.458-0.458-0.643-0.642c-0.273,0-0.458,0-0.642,0c-0.276,0.184-0.46,0.367-0.643,0.642c0,0.184,0,0.367,0,0.642
			c-0.275,0.551-0.46,1.192-0.644,1.835c-0.183,0.184-0.458,0.458-0.643,0.642c-0.183,0.184-0.457,0.458-0.642,0.642
			c-0.183,0-0.459,0-0.641,0c-0.185,0.459-0.367,0.825-0.552,1.284c-0.275,0-0.46,0-0.642,0c-0.276,0.642-0.46,1.284-0.643,1.928
			c0,0.182,0,0.365,0,0.641c0,0.184,0,0.367,0,0.551c0,0.183,0,0.458,0,0.642c-0.275,0.184-0.459,0.457-0.643,0.642
			c0,0.824,0,1.742,0,2.566c0,0.184,0,0.459,0,0.643c-0.274,0-0.458,0-0.642,0c-0.276,0.551-0.46,1.191-0.643,1.834
			c0.183,0.184,0.365,0.459,0.643,0.643c0.184,0,0.366,0,0.642,0c0,0.184,0,0.459,0,0.641c0,0.184,0,0.459,0,0.643s0,0.459,0,0.643
			c0,0.824,0,1.649,0,2.567c0,0.367,0,0.824,0,1.191c-0.274,0.184-0.458,0.457-0.642,0.641c-0.276,0.459-0.46,0.826-0.643,1.285
			c0,0.183,0,0.457,0,0.642c-0.184,0-0.46,0-0.644,0c-0.458,0.185-0.825,0.459-1.283,0.644c0.185,0.184,0.458,0.457,0.643,0.641
			c0,0.184,0,0.367,0,0.645c0.184,0.182,0.458,0.365,0.642,0.641c0.46,0,0.825,0,1.285,0c0,0.642,0,1.283,0,1.926
			c-0.276,0.185-0.46,0.365-0.643,0.55c-0.184,0-0.46,0-0.644,0c-0.184,0.185-0.458,0.459-0.642,0.644c0,0.182,0,0.457,0,0.641
			c0.184,0.184,0.458,0.459,0.642,0.643s0.46,0.367,0.644,0.641c0.183,1.01,0.365,2.109,0.643,3.209c0.184,0,0.366,0,0.642,0
			c0.184,0.367,0.366,0.826,0.643,1.285c0.183,0.182,0.365,0.365,0.643,0.549c0.182,0,0.365,0,0.642,0
			c0.185,0.459,0.367,0.826,0.552,1.283c0.182,0.184,0.458,0.367,0.641,0.644c0.185,0.366,0.459,0.825,0.642,1.282
			c0.46,0,0.825,0,1.285,0c0,0.644,0,1.283,0,1.929c0.183,0.185,0.365,0.364,0.643,0.642c0.184,0,0.367,0,0.642,0
			c0,0.184,0,0.366,0,0.551c1.284,0,1.284,0,1.284-0.551c0-0.275,0-0.457,0-0.642c0.184,0,0.365,0,0.642,0c0,0.185,0,0.364,0,0.642
			c0.185,0.184,0.367,0.366,0.643,0.551c0.184,0.184,0.367,0.457,0.642,0.641c0.185,0,0.367,0,0.551,0s0.366,0,0.643,0
			c0-0.184,0-0.457,0-0.641c0.183-0.185,0.366-0.367,0.643-0.551c0-0.457,0-0.919,0-1.285c-0.275-0.457-0.46-0.916-0.643-1.283
			c0-0.457,0-0.916,0-1.283c-0.275-0.459-0.459-0.916-0.643-1.283c-0.184-0.643-0.366-1.283-0.551-1.834c0.185,0,0.367,0,0.551,0
			c0-1.285,0-1.285-0.551-1.285c0.185-0.273,0.367-0.457,0.551-0.641c0.184-0.273,0.366-0.457,0.643-0.641c0-0.644,0-1.285,0-1.927
			c0-0.185,0-0.459,0-0.644c0-0.641,0-1.282,0-1.832c0-0.274,0-0.459,0-0.643c0-0.275,0-0.459,0-0.643
			c-0.275-0.273-0.459-0.457-0.643-0.641c0-0.275,0-0.459,0-0.642c0.184-0.461,0.366-0.827,0.643-1.284c0-0.459,0-0.826,0-1.283
			c0.183-0.826,0.366-1.742,0.643-2.478c0-0.272,0-0.457,0-0.642c0.185-0.274,0.365-0.459,0.643-0.643c0-0.459,0-0.826,0-1.285
			c0.184-0.184,0.366-0.459,0.642-0.641c0.184-0.184,0.367-0.459,0.642-0.643c0-0.459,0-0.824,0-1.283
			c0.367-0.459,0.826-0.826,1.284-1.285c0.185-0.184,0.367-0.365,0.643-0.549c0.366,0,0.824,0,1.191,0
			c0.185-0.459,0.459-0.826,0.643-1.285c0.184-0.182,0.459-0.457,0.643-0.641c0.185-0.184,0.365-0.459,0.643-0.643
			c0.184-0.184,0.366-0.459,0.642-0.643c0.184,0,0.367,0,0.642,0c0.185,0.184,0.367,0.459,0.644,0.643c0,0.184,0,0.459,0,0.643
			c-0.275,0.184-0.459,0.459-0.644,0.641c-0.273,0.184-0.458,0.459-0.642,0.643c0,0.184,0,0.367,0,0.643
			c0.184,0.184,0.367,0.365,0.642,0.549c0.367,0,0.826,0,1.284,0c0.185,0.184,0.367,0.459,0.643,0.643c0,0.184,0,0.459,0,0.643
			s0,0.459,0,0.641c0,0.184,0,0.459,0,0.643c0.184,0.184,0.366,0.459,0.551,0.643c0.642,0.182,1.283,0.457,1.926,0.641
			c0.184,1.469,0.458,2.936,0.642,4.402c-0.458,0-0.824,0-1.283,0c0,0.185,0,0.459,0,0.644c0.184,0.457,0.459,0.824,0.643,1.283
			c0,0.184,0,0.457,0,0.641c0.184,0.459,0.458,0.826,0.642,1.285c0,0.641,0,1.283,0,1.926c-0.184,0.732-0.458,1.648-0.642,2.475
			c-0.643,0-1.284,0-1.926,0c0,1.283,0,1.283,0.642,1.283c0,0.643,0,1.283,0,1.924c0.185,0.184,0.459,0.367,0.643,0.643
			c0.184,0.185,0.459,0.367,0.643,0.644c0.185,3.117,0.458,6.233,0.642,9.444c0,0.185,0,0.365,0,0.644c0,0.183,0,0.365,0,0.642
			c0,0.184,0,0.367,0,0.641c0,0.184,0,0.367,0,0.645c0.185,0.185,0.458,0.367,0.643,0.641c0.184,0.185,0.367,0.367,0.642,0.552
			c0,0.459,0,0.826,0,1.283c0,0.184,0,0.461,0,0.644c0,0.184,0,0.459,0,0.643c0.367,0.184,0.826,0.459,1.284,0.643
			c0,0.641,0,1.284,0,1.928c0.367,0,0.825,0,1.192,0c0,0.184,0,0.366,0,0.549c0.184,0.459,0.458,0.826,0.642,1.285
			c0.185,0,0.459,0,0.643,0c0.184-0.185,0.459-0.459,0.643-0.644c0.184-0.824,0.458-1.649,0.642-2.478
			c0.185-0.457,0.458-0.824,0.643-1.283c0.184-0.184,0.46-0.459,0.643-0.643c0-0.183,0-0.459,0-0.644c0-0.183,0-0.457,0-0.642
			c0-0.184,0-0.459,0-0.643c0.184-0.184,0.458-0.367,0.643-0.551c0.366-1.742,0.824-3.484,1.191-5.135
			c-0.184-0.185-0.459-0.367-0.643-0.551c0-1.285,0-2.568,0-3.853c0-0.274,0-0.459,0-0.644c0-0.641,0-1.283,0-1.832
			c0.184-1.744,0.459-3.393,0.643-5.135c0-0.184,0-0.459,0-0.643c0.185,0,0.458,0,0.643,0c0-1.283,0-1.283-0.643-1.283
			c0-0.184,0-0.365,0-0.549c-0.367-0.275-0.825-0.459-1.191-0.643c-0.185-0.275-0.459-0.459-0.643-0.644
			c0.184-0.272,0.458-0.457,0.643-0.642c0.55,0,1.191,0,1.834,0c0.184-0.274,0.458-0.459,0.642-0.641
			c-0.184-0.461-0.458-0.828-0.642-1.285C171.478,67.596,171.203,66.956,171.02,66.313z M145.802,77.131c-0.184,0-0.458,0-0.642,0
			c0-0.457,0-0.824,0-1.283c0.184,0,0.366,0,0.642,0C145.802,76.215,145.802,76.674,145.802,77.131z M165.334,75.848
			c0,0.643,0,0.643-1.192,0.643c0-0.459,0-0.918,0-1.285c0-0.641,0-0.641,1.192-0.641C165.334,75.022,165.334,75.389,165.334,75.848
			z M167.26,88.502c-0.184,0-0.367,0-0.643,0c0-0.459,0-0.824,0-1.285c0.184,0,0.459,0,0.643,0
			C167.26,87.678,167.26,88.043,167.26,88.502z"/>
		<path fill="#CA0505" d="M153.963,103.083c0-0.184,0-0.459,0-0.643c-0.184-0.184-0.458-0.457-0.643-0.641
			c-0.184-0.824-0.366-1.742-0.551-2.566c-0.273-0.184-0.458-0.459-0.642-0.643c-0.274-0.367-0.458-0.824-0.643-1.191
			c-0.274-0.459-0.458-0.919-0.642-1.286c-0.275-0.184-0.459-0.456-0.643-0.641c-0.274,0-0.458,0-0.643,0
			c-0.273-0.185-0.458-0.459-0.642-0.644c-0.276-0.184-0.458-0.459-0.643-0.643c0-0.459,0-0.824,0-1.283
			c-0.275-0.184-0.46-0.459-0.643-0.643c-0.275-0.184-0.459-0.367-0.642-0.551c-0.185-0.273-0.367-0.457-0.552-0.642
			c-0.273-0.276-0.458-0.461-0.642-0.646c-0.274-0.272-0.458-0.457-0.642-0.641c-0.276-0.275-0.458-0.459-0.643-0.641
			c-0.276-0.277-0.459-0.459-0.643-0.643c-0.916-0.459-1.743-0.824-2.568-1.285c0-0.365,0-0.824,0-1.191
			c-0.458-0.275-0.824-0.457-1.283-0.641c-0.183-0.277-0.459-0.459-0.641-0.646c0-0.272,0-0.457,0-0.641
			c-0.185-0.275-0.367-0.46-0.551-0.644c-0.276-0.272-0.46-0.457-0.643-0.641c-0.275-0.459-0.46-0.918-0.643-1.285
			c-0.275-0.273-0.459-0.457-0.643-0.641c-0.274-0.275-0.458-0.459-0.642-0.643c-0.276-0.185-0.46-0.367-0.642-0.55
			c-0.185-0.274-0.46-0.459-0.645-0.644c-0.184-0.274-0.458-0.459-0.642-0.643c-0.185-0.275-0.458-0.459-0.643-0.643
			c-0.183-0.273-0.459-0.457-0.642-0.641c-0.183-0.916-0.459-1.742-0.644-2.566c-0.184-0.184-0.458-0.459-0.642-0.643
			c-0.184-0.459-0.458-0.824-0.551-1.283c-0.274-0.184-0.458-0.365-0.643-0.549c-0.458-0.275-0.823-0.459-1.281-0.644
			c-0.185-0.459-0.46-0.916-0.645-1.282c-0.184,0-0.458,0-0.642,0v-0.093c-0.185-0.185-0.458-0.366-0.643-0.549
			c-0.184-0.276-0.458-0.461-0.642-0.646c-0.643-0.641-1.284-1.283-1.926-1.924c0.183,0,0.458,0,0.642,0c0-0.643,0-1.285,0-1.926
			c-0.184,0-0.459,0-0.642,0c-0.185-0.184-0.367-0.367-0.551-0.551c0-0.273,0-0.457,0-0.641c0-0.275,0-0.459,0-0.644
			s0-0.459,0-0.644c0.184-0.184,0.366-0.458,0.551-0.643c0-0.184,0-0.459,0-0.641c0.183-0.184,0.458-0.459,0.642-0.643
			c0.459-0.643,0.826-1.283,1.284-1.926c0.184-0.184,0.458-0.459,0.642-0.643c0.185-0.184,0.458-0.365,0.643-0.549
			c0.184,0,0.458,0,0.642,0c0.185-0.275,0.46-0.459,0.645-0.643c0.642,0,0.642,0,0.642-1.283c0.458,0,0.824,0,1.282,0
			c0.093-0.184,0.367-0.459,0.551-0.643c0.458-0.643,0.825-1.283,1.284-1.925c0-0.184,0-0.459,0-0.642c0-0.184,0-0.367,0-0.551
			c0.183-0.275,0.459-0.459,0.642-0.641c0.185-0.276,0.458-0.46,0.643-0.644c0.184-0.275,0.458-0.459,0.642-0.643
			c0-0.274,0-0.458,0-0.642c0.185-0.184,0.46-0.459,0.645-0.643c0.182-0.183,0.364-0.458,0.642-0.642c0.184,0,0.366,0,0.642,0
			c0.184-0.184,0.366-0.458,0.643-0.642c0.183,0,0.366,0,0.643,0c0.183-0.184,0.365-0.458,0.643-0.642
			c0.184-0.184,0.366-0.367,0.551-0.551c0-0.459,0-0.917,0-1.284c0.458-0.458,0.824-0.916,1.282-1.283
			c0.184-0.275,0.459-0.458,0.642-0.643c0.184,0,0.367,0,0.644,0c0.183-0.274,0.365-0.458,0.643-0.642
			c0.184-0.275,0.367-0.458,0.642-0.642c0.185,0,0.366,0,0.643,0c0.184-0.184,0.365-0.458,0.643-0.642
			c0.185-0.184,0.365-0.367,0.643-0.55c-0.276-0.275-0.458-0.459-0.643-0.643c0.365-0.458,0.825-0.917,1.283-1.284
			c0.184-0.274,0.367-0.458,0.642-0.642c0.185-0.274,0.367-0.458,0.552-0.642c0.183-0.275,0.365-0.458,0.642-0.643
			c0.183-0.642,0.366-1.283,0.643-1.925c-0.275,0-0.46,0-0.643,0c-0.459-0.184-0.825-0.459-1.192-0.642c0-0.367,0-0.826,0-1.193
			c0.367,0,0.733,0,1.192,0c0.917-1.925,0.917-1.925,0.733-3.117c-0.458,0.366-0.917,0.733-1.375,1.192
			c-0.367,0.184-0.825,0.366-1.192,0.642c-0.642,0.642-1.283,1.283-1.926,1.926c-0.275,0.184-0.458,0.366-0.643,0.551
			c-0.273,0.183-0.458,0.458-0.642,0.642c-0.276,0.183-0.46,0.366-0.643,0.642c-0.275,0-0.46,0-0.644,0
			c-0.183,0.366-0.458,0.825-0.642,1.283c-0.184,0-0.458,0-0.643,0c-0.183,0.185-0.459,0.367-0.641,0.643
			c-0.185,0.184-0.367,0.367-0.551,0.642c0,0.184,0,0.367,0,0.642c-0.276,0.184-0.46,0.367-0.643,0.642c-0.275,0-0.46,0-0.643,0
			c-0.275,0.185-0.459,0.367-0.643,0.643c-0.274,0-0.458,0-0.642,0c-0.276,0.184-0.46,0.367-0.642,0.643
			c-0.461,0.183-0.827,0.366-1.285,0.55c-0.185,0-0.458,0-0.643,0c0,0.184,0,0.458,0,0.642s0,0.366,0,0.642c0,0.184,0,0.367,0,0.642
			c-0.183,0.185-0.459,0.367-0.642,0.643c-0.184,0-0.459,0-0.644,0c-0.184-0.275-0.458-0.458-0.642-0.643c-0.458,0-0.825,0-1.192,0
			c-0.273,0-0.458,0-0.641,0c-0.46,0.826-0.825,1.651-1.285,2.568c-0.184,0.183-0.458,0.367-0.642,0.642c0,0.184,0,0.367,0,0.551
			c0,0.184,0,0.458,0,0.642c-0.185,0.184-0.458,0.458-0.643,0.642c-0.184,0.184-0.458,0.459-0.642,0.642
			c-0.184,0.459-0.458,0.826-0.643,1.284c0,0.184,0,0.367,0,0.643c-0.184,0-0.458,0-0.643,0c-0.642-1.009-0.642-1.009-2.476-1.284
			c-0.185,0.642-0.458,1.284-0.644,1.928c-0.183,0.365-0.458,0.824-0.642,1.191c-0.185,0-0.459,0-0.643,0
			c-0.642,0-0.642,0-0.642,1.283c-0.459,0-0.826,0-1.284,0c0-0.185,0-0.458,0-0.642c0.185,0,0.458,0,0.643,0
			c0-0.825,0-1.651,0-2.477c-0.185,0-0.458,0-0.643,0c-0.184-2.109-0.367-4.219-0.551-6.328c0.184-0.274,0.367-0.458,0.551-0.642
			c0.185-1.101,0.458-2.109,0.643-3.117c0.366-0.185,0.366-0.185-0.643-0.643c0-0.643,0-1.284,0-1.926c0.185,0,0.458,0,0.643,0
			c0-1.284,0-1.284-0.643-1.284c0-0.274,0-0.458,0-0.642c0-0.275,0-0.459,0-0.642c0.185-0.275,0.458-0.459,0.643-0.642
			c0.184,0,0.459,0,0.643,0c0.366-0.184,0.642-0.459,1.008-0.642c-0.184-0.551-0.274-1.193-0.365-1.835
			c-0.185-0.642-0.46-1.283-0.643-1.925c0-0.918,0-1.743,0-2.568c0.183-0.183,0.458-0.458,0.643-0.642c0.183,0,0.457,0,0.642,0
			c-0.185-1.468-0.459-2.935-0.642-4.402c0-1.283,0-2.567,0-3.852c-0.46,0-0.825,0-1.284,0c-0.185,0-0.458,0-0.643,0
			c-0.184-0.183-0.367-0.458-0.551-0.642c-0.458-0.183-0.917-0.366-1.283-0.55c-0.274-0.184-0.458-0.458-0.642-0.642
			c-0.917,0-1.743,0-2.568,0c0-0.184,0-0.459,0-0.643c-1.19,0-1.19,0-1.19,0.643c-0.275,0.184-0.459,0.458-0.644,0.642
			c0,0.367,0,0.825,0,1.191c0,0.184,0,0.459,0,0.643s0,0.458,0,0.642c-0.273,0.184-0.458,0.459-0.642,0.643
			c-0.275,0.458-0.459,0.825-0.643,1.283c-0.274,0.184-0.459,0.459-0.642,0.642c-0.275,1.101-0.459,2.109-0.643,3.118
			c-0.458,0-0.917,0-1.284,0c0,0.825,0,1.743,0,2.567c0.184,0.642,0.367,1.284,0.643,1.927c-0.274,0.183-0.459,0.366-0.643,0.642
			c0,0.184,0,0.366,0,0.642c0.184,0.184,0.367,0.366,0.643,0.642c0,0.184,0,0.367,0,0.642c0.185,0.185,0.366,0.367,0.643,0.643
			c0.184-0.275,0.366-0.458,0.643-0.643c0.183,0,0.366,0,0.642,0c0.184,1.193,0.366,2.477,0.643,3.76c0,0.185,0,0.367,0,0.643
			c0.184,0.184,0.367,0.367,0.642,0.642c0,0.367,0,0.825,0,1.283c-0.273,0.185-0.458,0.367-0.642,0.643
			c-0.275,0.184-0.459,0.367-0.643,0.643c0,0.366,0,0.824,0,1.191c-0.642,0.184-1.283,0.366-1.926,0.642c-0.274,0-0.459,0-0.643,0
			c0,1.284,0,1.284,0.643,1.284c0.185,0.184,0.366,0.367,0.643,0.642c0,0.184,0,0.367,0,0.642c0.366,0.184,0.824,0.367,1.283,0.643
			c0,0.55,0,1.192,0,1.834s0,1.283,0,1.926c-0.642,0.091-1.191,0.275-1.834,0.458c0.185,0.275,0.366,0.551,0.551,0.826
			c0.184,0.184,0.366,0.367,0.643,0.644c0.183,0.182,0.366,0.365,0.642,0.641c0.274,4.4,0.274,4.4,1.283,8.16
			c-0.273,0.184-0.458,0.459-0.642,0.643c0,0.184,0,0.459,0,0.643c0,0.457,0,0.824,0,1.284c0,0.459,0,0.826,0,1.285
			c-0.275,0.366-0.459,0.823-0.643,1.19c0,0.457,0,0.823,0,1.282c-0.274,0.185-0.459,0.459-0.642,0.644
			c-0.275,0.457-0.459,0.824-0.643,1.283c-0.275,0.185-0.458,0.457-0.643,0.642c0,0.184,0,0.366,0,0.645
			c0.185,0.182,0.366,0.365,0.643,0.641c0,0.184,0,0.367,0,0.641c0,0.644,0,1.285,0,1.834c-0.275,0-0.458,0-0.643,0
			c-0.274,0.459-0.459,0.824-0.643,1.283c0,0.184,0,0.459,0,0.644c-0.274,0.184-0.458,0.366-0.643,0.641
			c-0.184,0.185-0.365,0.367-0.55,0.644c-0.274,0-0.459,0-0.642,0c0,0.184,0,0.367,0,0.643c0,0.184,0,0.367,0,0.641
			c1.19,0,1.19,0,1.19-0.641c0.185,0,0.367,0,0.643,0c0,0.184,0,0.367,0,0.641c0.184,0.367,0.367,0.824,0.643,1.283
			c0.185,0.367,0.366,0.826,0.643,1.285c0,0.182,0,0.365,0,0.549c-0.275,0.643-0.458,1.283-0.643,1.926c0,0.185,0,0.367,0,0.644
			c-0.459,0.823-0.917,1.649-1.284,2.567c0,0.185,0,0.365,0,0.642c0.185,0,0.367,0,0.643,0c0.367-0.457,0.826-0.918,1.284-1.285
			c0.366,0,0.824,0,1.283,0c0,0.367,0,0.828,0,1.285c-0.274,0.185-0.459,0.366-0.642,0.551c-0.275,0.824-0.459,1.649-0.643,2.567
			c0,0.183,0,0.365,0,0.642c0.184,0.185,0.366,0.367,0.643,0.642c0.183,0,0.366,0,0.642,0c0-0.916,0-1.74,0-2.566
			c0.184-0.459,0.366-0.826,0.643-1.283c0.184,1.467,0.367,2.934,0.642,4.494c-0.273,0.184-0.458,0.367-0.642,0.641
			c0,0.185,0,0.367,0,0.551c-0.275,0.185-0.459,0.459-0.643,0.644c-0.459,0.642-0.917,1.283-1.283,1.927c0,0.184,0,0.459,0,0.643
			c0.184,0.184,0.366,0.457,0.643,0.641c0.183,0.367,0.366,0.827,0.642,1.286c0.184,0.549,0.366,1.19,0.643,1.834
			c0.184,0.183,0.367,0.457,0.642,0.642c0,0.459,0,0.823,0,1.284c0.185,0.824,0.367,1.647,0.644,2.566
			c0.184,0.092,0.365,0.366,0.55,0.551c0,0.459,0,0.826,0,1.283c0.642,0,1.283,0,1.926,0c0-0.185,0-0.457,0-0.642
			c0.184-0.643,0.367-1.192,0.642-1.836c0-0.184,0-0.459,0-0.643c0.185-0.184,0.367-0.457,0.644-0.641
			c0.184-0.642,0.366-1.283,0.642-1.926c0.185-0.185,0.366-0.459,0.643-0.642c0.184-0.459,0.367-0.826,0.642-1.285
			c0-0.183,0-0.364,0-0.549c0-0.459,0-0.919,0-1.286c0.185-0.184,0.367-0.457,0.551-0.641c-0.184-1.102-0.366-2.109-0.551-3.211
			c-0.273-0.824-0.458-1.652-0.642-2.478c0-0.274,0-0.459,0-0.642c0.184,0,0.367,0,0.642,0c0-1.284,0-1.284-0.642-1.284
			c0-0.644,0-1.283,0-1.834c0.184-0.918,0.367-1.742,0.642-2.567c0-0.273,0-0.457,0-0.642c0.185-0.274,0.367-0.459,0.551-0.644
			c0-0.274,0-0.459,0-0.643c0-0.273,0-0.457,0-0.641c0-0.275,0-0.459,0-0.643c0-0.185,0-0.367,0-0.55c0-0.274,0-0.459,0-0.644
			c-0.366-0.459-0.824-0.918-1.191-1.285c0-0.456,0-0.913,0-1.28c0.184-1.741,0.367-3.394,0.642-5.043c0.185,0,0.367,0,0.551,0
			c0.185,0.185,0.458,0.367,0.643,0.644c0.184,0.184,0.459,0.364,0.643,0.549c0.184,0.459,0.458,0.824,0.643,1.283
			c0.183,0.184,0.458,0.459,0.642,0.643s0.459,0.367,0.642,0.641c0.186,0,0.459,0,0.644,0c0.184,0.367,0.459,0.826,0.642,1.285
			c0,0.184,0,0.367,0,0.641c0.185,0.367,0.367,0.824,0.643,1.283c0.184,0.184,0.366,0.367,0.551,0.643c0.458,0,0.825,0,1.283,0
			c0.185,0.367,0.459,0.824,0.643,1.191c0,0.184,0,0.367,0,0.643c0.185,0.185,0.458,0.367,0.643,0.642
			c0.184,0.185,0.458,0.367,0.642,0.644c0.184,0.184,0.458,0.367,0.642,0.643c0.185,0.184,0.46,0.367,0.645,0.641
			c0,0.367,0,0.826,0,1.283c-0.46,0-0.827,0-1.285,0c0,1.285,0,1.285,0.642,1.285c0.185,0,0.46,0,0.645,0
			c0.458,0.184,0.824,0.367,1.282,0.551c0.184,0,0.366,0,0.642,0c0.093,0.184,0.367,0.457,0.551,0.641
			c0.185,0.185,0.458,0.461,0.643,0.644c0.184,0.366,0.46,0.826,0.643,1.285c0,0.364,0,0.823,0,1.28c0,0.185,0,0.367,0,0.646
			c0.642,0,1.283,0,1.925,0c0-0.276,0-0.461,0-0.646c0.46,0,0.825,0,1.285,0c0.185,0,0.366,0,0.642,0
			c0.184,0.367,0.366,0.828,0.643,1.285c0,0.185,0,0.367,0,0.551c0.183,0.185,0.366,0.459,0.643,0.644
			c0.183,0.185,0.365,0.459,0.643,0.642c0.184,0.184,0.367,0.461,0.551,0.643c0,0.184,0,0.459,0,0.643
			c0.182,0.459,0.458,0.826,0.641,1.283c0.185,0.184,0.459,0.367,0.643,0.645c0.184,0,0.459,0,0.642,0c0.185,0,0.367,0,0.645,0
			c0.364-0.276,0.824-0.461,1.282-0.645c0,0.367,0,0.827,0,1.286c0,0.185,0,0.366,0,0.549c0.185,0,0.366,0,0.643,0
			c0.184,0,0.366,0,0.643,0c0.185,0.459,0.365,0.826,0.643,1.285c0.184,0.183,0.366,0.457,0.642,0.642
			c0.184,0.184,0.367,0.459,0.642,0.643c0,0.182,0,0.459,0,0.643c0.185,0.184,0.367,0.457,0.552,0.641c0,0.185,0,0.457,0,0.642
			c1.101-0.185,2.108-0.457,3.209-0.642c0.367,0.185,0.826,0.457,1.284,0.642c0.184,0.185,0.366,0.459,0.642,0.644
			c0.184,0.184,0.367,0.364,0.642,0.643c0.185,0.092,0.367,0.367,0.552,0.551c0,0.182,0,0.459,0,0.643c1.283,0,1.283,0,1.283-0.643
			c0-0.184,0-0.459,0-0.551C154.422,103.45,154.146,103.267,153.963,103.083z M143.876,36.601c0.366,0,0.826,0,1.284,0
			c0,0.185,0,0.367,0,0.643c-0.458,0-0.825,0-1.284,0C143.876,37.06,143.876,36.786,143.876,36.601z M140.666,41.003
			c0.184,0,0.459,0,0.642,0c0,0.184,0,0.458,0,0.642c-0.183,0-0.365,0-0.642,0C140.666,41.461,140.666,41.278,140.666,41.003z
			 M127.37,51.825c0.184,0,0.458,0,0.642,0c0,0.184,0,0.367,0,0.551c-0.184,0-0.367,0-0.642,0
			C127.37,52.192,127.37,52.008,127.37,51.825z M111.598,29.632c-0.184,0-0.459,0-0.642,0c0-0.184,0-0.366,0-0.643
			c0.183,0,0.365,0,0.642,0C111.598,29.173,111.598,29.357,111.598,29.632z M110.314,78.415c-0.184,0-0.459,0-0.643,0
			c0-0.182,0-0.459,0-0.643c0.184,0,0.367,0,0.643,0C110.314,77.956,110.314,78.139,110.314,78.415z M110.314,69.524
			c0-0.461,0-0.828,0-1.285c0.184,0,0.366,0,0.643,0c0,0.457,0,0.824,0,1.285C110.772,69.524,110.497,69.524,110.314,69.524z
			 M111.598,71.448c-0.184,0-0.459,0-0.642,0c0-0.184,0-0.459,0-0.643c0.183,0,0.365,0,0.642,0
			C111.598,70.989,111.598,71.172,111.598,71.448z M110.956,94.831c0-0.184,0-0.367,0-0.643c0.365,0,0.825,0,1.283,0
			c0,0.184,0,0.459,0,0.643C111.781,94.831,111.414,94.831,110.956,94.831z M112.882,98.59c-0.184,0-0.459,0-0.643,0
			c0-0.184,0-0.366,0-0.643c0.184,0,0.366,0,0.643,0C112.882,98.131,112.882,98.409,112.882,98.59z M113.432,93.545
			c-0.366,0-0.825,0-1.191,0c0-0.183,0-0.365,0-0.642c0.366,0,0.825,0,1.191,0C113.432,93.088,113.432,93.364,113.432,93.545z
			 M113.432,58.059c-0.184,0-0.366,0-0.55,0c0-0.184,0-0.365,0-0.549c0.184,0,0.366,0,0.55,0
			C113.432,57.694,113.432,57.875,113.432,58.059z M114.715,29.632c-0.183,0-0.366,0-0.642,0c0-0.184,0-0.366,0-0.643
			c0.184,0,0.459,0,0.642,0C114.715,29.173,114.715,29.357,114.715,29.632z M116.642,20.095c-0.643,0-1.284,0-1.927,0
			c0-0.184,0-0.366,0-0.642c0.643,0,1.284,0,1.927,0C116.642,19.637,116.642,19.912,116.642,20.095z M120.401,61.911
			c0-0.459,0-0.824,0-1.283c0.458,0.092,0.824,0.184,1.283,0.367C121.226,61.27,120.859,61.637,120.401,61.911z M123.61,49.898
			c0.185,0,0.367,0,0.643,0c0,0.184,0,0.367,0,0.643c-0.185,0-0.458,0-0.643,0C123.61,50.357,123.61,50.082,123.61,49.898z
			 M124.252,67.596c-0.185,0-0.458,0-0.643,0c0-0.184,0-0.365,0-0.641c0.185,0,0.367,0,0.643,0
			C124.252,67.137,124.252,67.413,124.252,67.596z M125.444,77.131c-0.184,0-0.366,0-0.642,0c0-0.184,0-0.457,0-0.641
			c0.183,0,0.458,0,0.642,0C125.444,76.674,125.444,76.858,125.444,77.131z M131.221,76.491c-0.183,0-0.458,0-0.642,0
			c0-0.459,0-0.824,0-1.285c0.184,0,0.366,0,0.642,0C131.221,75.573,131.221,76.032,131.221,76.491z M136.266,89.145
			c-0.46,0-0.825,0-1.285,0c0-0.184,0-0.459,0-0.643c0.46,0,0.825,0,1.285,0C136.266,88.686,136.266,88.868,136.266,89.145z
			 M141.951,94.831c-0.185,0-0.367,0-0.645,0c0-0.184,0-0.367,0-0.643c0.185,0,0.367,0,0.645,0
			C141.951,94.372,141.951,94.647,141.951,94.831z M145.802,97.95c-0.184,0-0.458,0-0.642,0c0-0.365,0-0.826,0-1.191
			c0.184,0,0.366,0,0.642,0C145.802,97.124,145.802,97.583,145.802,97.95z"/>
		<path fill="#CA0505" d="M201.464,59.344c0-1.01,0-2.109,0-3.119c-0.184-0.641-0.457-1.283-0.641-1.926c0-0.182,0-0.457,0-0.641
			c-0.185-0.458-0.462-0.825-0.644-1.283c-0.184-0.184-0.459-0.367-0.643-0.551c-0.185-0.641-0.459-1.284-0.642-1.927
			c0-0.274,0-0.458,0-0.642c-0.184-0.184-0.367-0.459-0.551-0.643c0-0.642,0-1.283,0-1.925c-0.275-0.184-0.459-0.367-0.643-0.551
			c-0.273,0-0.457,0-0.642,0c-0.276-0.274-0.459-0.459-0.643-0.642c-0.275-0.459-0.459-0.917-0.644-1.284
			c-0.274-0.274-0.457-0.458-0.642-0.642c-0.276,0-0.458,0-0.642,0c-0.276-0.458-0.461-0.917-0.645-1.284
			c-0.273-0.275-0.458-0.458-0.642-0.642c-0.184,0-0.366,0-0.551,0c-0.458-0.184-0.916-0.458-1.282-0.642
			c-0.276-0.184-0.458-0.367-0.643-0.55c-0.275-0.275-0.459-0.459-0.643-0.643c-0.275,0-0.459,0-0.643,0
			c-0.274-0.275-0.458-0.458-0.642-0.643c-0.276,0-0.458,0-0.642,0c-0.276-0.274-0.46-0.458-0.645-0.642c-0.273,0-0.458,0-0.642,0
			s-0.458,0-0.643,0c-0.184,0-0.458,0-0.55,0c-0.458,0-0.918,0-1.283,0c-0.918,0-1.742,0-2.566,0c-0.276,0-0.46,0-0.645,0
			c-0.184,0.184-0.458,0.367-0.642,0.642c-0.185,0.185-0.458,0.367-0.643,0.643c-0.459,0-0.824,0-1.283,0
			c-0.185,0.184-0.458,0.367-0.643,0.643c-0.184,0.183-0.367,0.366-0.551,0.55c-0.274,0.458-0.458,0.825-0.642,1.283
			c-0.274,0.184-0.458,0.367-0.643,0.642c0,0.643,0,0.643-1.284,0.643c0,0.642,0,1.283,0,1.926
			c-0.184,0.183-0.458,0.367-0.642,0.642c-0.184,0.184-0.458,0.367-0.642,0.551c0,0.184,0,0.458,0,0.642
			c-0.185,0.184-0.459,0.458-0.643,0.642c0,0.184,0,0.459,0,0.642c-0.274,0.184-0.274,0.184,0.643,1.284c0,0.367,0,0.826,0,1.286
			c-0.185,0.182-0.459,0.365-0.643,0.641c-0.184,0-0.459,0-0.643,0c-0.458,0.184-0.825,0.367-1.283,0.551
			c-0.184,0.183-0.459,0.458-0.643,0.642c0,0.457,0,0.825,0,1.282c0.459,0,0.825,0,1.283,0c0-0.457,0-0.825,0-1.282
			c0.458,0,0.825,0,1.284,0c0,0.184,0,0.457,0,0.642c-0.184,0-0.459,0-0.643,0c0,0.824,0,1.742,0,2.566c0.184,0,0.459,0,0.643,0
			c0,0.184,0,0.459,0,0.643c-0.459,0.184-0.826,0.367-1.284,0.643c-0.184-0.275-0.458-0.459-0.642-0.643c-0.184,0-0.459,0-0.644,0
			c0,0.551,0,1.191,0,1.834c0.185,0,0.46,0,0.644,0c0,0.643,0,1.283,0,1.926c0.458,0.824,0.825,1.742,1.283,2.568
			c0.184,0.826,0.459,1.65,0.643,2.475c0.184,0.185,0.458,0.459,0.643,0.644c0.184,2.108,0.458,4.22,0.642,6.326
			c0.184,0.459,0.458,0.823,0.642,1.282c0.185,0.826,0.46,1.65,0.644,2.568c0.183,0.184,0.366,0.367,0.642,0.641
			c0,0.185,0,0.367,0,0.642c-0.274,0.185-0.459,0.367-0.642,0.644c0,0.184,0,0.367,0,0.643c0.183,0.184,0.366,0.367,0.642,0.643
			c0.185,0.365,0.367,0.732,0.643,1.191c0.366,0.184,0.824,0.367,1.191,0.641c0.185,0.184,0.458,0.367,0.643,0.643
			c0.184,0.367,0.459,0.826,0.643,1.283c0.183,0.185,0.458,0.367,0.642,0.644c0.185,0.185,0.458,0.366,0.643,0.642
			c0.184,0.551,0.458,1.192,0.642,1.836c0.46,0.184,0.826,0.457,1.285,0.641c0.184,0.461,0.366,0.826,0.643,1.285
			c0,0.365,0,0.824,0,1.283c0.641,0,1.283,0,1.926,0c0.184,0,0.367,0,0.642,0c0.092,0.184,0.366,0.367,0.55,0.641
			c0.185,0.184,0.459,0.367,0.643,0.645c0.184,0.184,0.367,0.367,0.642,0.641c0.645,0,1.285,0,1.927,0
			c0.184-0.272,0.366-0.457,0.643-0.641c0.184-0.277,0.366-0.461,0.643-0.645c0.185-0.273,0.365-0.457,0.643-0.641
			c0.184-0.275,0.367-0.459,0.642-0.642c0.185,0,0.367,0,0.643,0c0.184-0.459,0.366-0.918,0.55-1.285
			c0.184-0.459,0.367-0.825,0.642-1.282c0.185-0.185,0.367-0.367,0.645-0.552c0.184-0.274,0.364-0.457,0.642-0.641
			c0.185-0.277,0.366-0.46,0.642-0.646c0.185,0,0.367,0,0.644,0c0,0.367,0,0.828,0,1.285c0.365,0,0.826,0,1.283,0
			c0-0.641,0-1.285,0-1.926c0-0.275,0-0.459,0-0.643c0.184-0.273,0.366-0.457,0.643-0.642c0-0.459,0-0.918,0-1.284
			c0-0.273,0-0.457,0-0.642c0.367-0.644,0.824-1.283,1.191-1.834c0.184-0.274,0.459-0.459,0.643-0.644c0-0.274,0-0.459,0-0.643
			c0.459-0.457,0.826-0.914,1.283-1.281c0-0.643,0-1.285,0-1.926c0.184-0.459,0.367-0.826,0.643-1.283c0-0.826,0-1.65,0-2.477
			c0-0.273,0-0.457,0-0.641c0-0.275,0-0.459,0-0.642c0.185,0,0.367,0,0.644,0c0-0.646,0-1.285,0-1.929c-0.275,0-0.459,0-0.644,0
			c0-0.184,0-0.459,0-0.641c0-0.184,0-0.459,0-0.643s0-0.459,0-0.643c0.185-0.457,0.367-0.824,0.644-1.191c0-0.273,0-0.457,0-0.641
			c0-0.275,0-0.459,0-0.644c-0.275-0.459-0.459-0.825-0.644-1.285C201.831,61.086,201.647,60.168,201.464,59.344z M176.796,61.911
			c0.184,0.184,0.367,0.458,0.642,0.643c-0.273,0-0.458,0-0.642,0C176.796,62.37,176.796,62.094,176.796,61.911z M177.438,79.057
			c0.185,0,0.367,0,0.552,0c0.184,0.184,0.458,0.367,0.642,0.643C178.172,79.424,177.805,79.241,177.438,79.057z M188.168,40.454
			c0.365,0,0.825,0,1.283,0c0,0.183,0,0.366,0,0.55c-0.458,0-0.825,0-1.283,0C188.168,40.82,188.168,40.636,188.168,40.454z
			 M181.841,55.584c0.183,0,0.365,0,0.642,0c0,0.184,0,0.459,0,0.641c-0.184,0-0.459,0-0.642,0
			C181.841,56.043,181.841,55.86,181.841,55.584z M193.21,85.385c-0.184,0-0.366,0-0.55,0c0.184-0.277,0.366-0.459,0.55-0.645
			C193.21,84.926,193.21,85.108,193.21,85.385z M195.778,70.165c-0.274,0-0.457,0-0.642,0c-0.276,0.185-0.458,0.367-0.642,0.642
			c-0.276,0.366-0.46,0.825-0.645,1.284c0,0.185,0,0.365,0,0.55s0,0.459,0,0.644c-0.273,0.641-0.458,1.282-0.642,1.924
			c0,0.184,0,0.367,0,0.643c0,0.184,0,0.367,0,0.643c-0.366,0.184-0.824,0.367-1.191,0.641c-0.184,0.367-0.273,0.824-0.367,1.283
			c-0.091,0.092-0.184,0.185-0.273,0.275c-0.276,0.092-0.458,0.184-0.643,0.367c-0.275,0.184-0.459,0.367-0.643,0.643
			c-0.459-0.275-0.917-0.459-1.283-0.643c-0.458,0-0.918,0-1.285,0c-0.273-1.102-0.458-2.199-0.642-3.209c-0.183,0-0.458,0-0.642,0
			c-0.185,0.367-0.458,0.826-0.551,1.283c-0.273,0-0.458,0-0.642,0c-0.276-0.457-0.458-0.916-0.642-1.283
			c-0.276-0.275-0.461-0.459-0.645-0.643c-0.274-0.457-0.458-0.824-0.641-1.283c-0.275-0.184-0.459-0.459-0.643-0.641
			c-0.275-0.185-0.459-0.459-0.642-0.644c-0.276-0.55-0.46-1.19-0.645-1.834c-0.642,0-0.642,0-0.642-1.281c0.184,0,0.458,0,0.642,0
			c0-0.276,0-0.461,0-0.646c-0.184,0-0.458,0-0.642,0c0-1.467,0-3.024,0-4.399c0.184,0,0.458,0,0.642,0c0-0.457,0-0.823,0-1.282
			c0.185-0.644,0.367-1.286,0.645-1.927c0-0.459,0-0.826,0-1.285c-0.276-0.182-0.46-0.457-0.645-0.641
			c1.376-1.102,1.376-1.102,1.928-2.477c0.183-0.184,0.365-0.459,0.641-0.643c0.184-0.641,0.367-1.283,0.644-1.926
			c-0.46-0.182-0.918-0.457-1.283-0.641c0-0.185,0-0.458,0-0.642c0.183-0.825,0.365-1.651,0.641-2.477
			c0.184-0.275,0.367-0.459,0.645-0.643c0.184-0.274,0.364-0.458,0.642-0.642c0-0.184,0-0.459,0-0.643c0-0.183,0-0.458,0-0.642
			c0.184,0,0.367,0,0.642,0c0,0.184,0,0.459,0,0.642c0,0.184,0,0.459,0,0.643c0.093,0.184,0.366,0.367,0.551,0.642
			c0.184-0.458,0.459-0.825,0.642-1.284c0.184-0.183,0.367-0.458,0.642-0.642c0.185-0.184,0.367-0.458,0.645-0.642
			c0.184,0,0.365,0,0.642,0c0.185,0.184,0.366,0.458,0.643,0.642c0.642,0.184,1.283,0.459,1.926,0.642
			c0.184,0.826,0.367,1.651,0.642,2.57c0.185,0.273,0.367,0.641,0.643,0.916c0.092,0.092,0.184,0.184,0.274,0.275
			c0.274,0,0.643,0,0.916,0c0,1.283,0,1.283-0.642,1.283c0,0.184,0,0.459,0,0.641c0.642,0,0.642,0,0.642,1.285
			c-0.273,0-0.458,0-0.642,0c0,0.459,0,0.824,0,1.283c0,0.367,0,0.826,0,1.191c0.184,0.184,0.367,0.459,0.642,0.643
			c0.185,0.184,0.367,0.459,0.645,0.643c0,0.184,0,0.459,0,0.641c0.184,0.184,0.364,0.459,0.642,0.643c0,0.184,0,0.459,0,0.643
			c0,0.182,0,0.457,0,0.641c0,0.459,0,0.826,0,1.285c0.186,0,0.366,0,0.642,0C195.778,65.487,195.778,67.78,195.778,70.165z
			 M197.063,47.331c-0.184,0-0.459,0-0.643,0c0-0.184,0-0.366,0-0.642c0.184,0,0.365,0,0.643,0
			C197.063,46.873,197.063,47.147,197.063,47.331z M201.464,71.448c-0.367,0-0.824,0-1.283,0c0-0.184,0-0.459,0-0.643
			c0.459,0,0.826,0,1.283,0C201.464,70.989,201.464,71.172,201.464,71.448z M200.181,68.879c0.365-0.457,0.644-0.824,1.01-1.283
			c0.091,0.459,0.183,0.826,0.273,1.283C201.007,68.879,200.64,68.879,200.181,68.879z"/>
	</g>
</g>
</svg>
